<?xml version="1.0" encoding="utf-8"?>
<!-- Generator: Adobe Illustrator 17.1.0, SVG Export Plug-In . SVG Version: 6.00 Build 0)  -->
<!DOCTYPE svg PUBLIC "-//W3C//DTD SVG 1.1//EN" "http://www.w3.org/Graphics/SVG/1.1/DTD/svg11.dtd">
<svg version="1.1" id="Layer_1" xmlns="http://www.w3.org/2000/svg" xmlns:xlink="http://www.w3.org/1999/xlink" x="0px" y="0px"
	 viewBox="0 0 1360.6 2040.9" enable-background="new 0 0 1360.6 2040.9" xml:space="preserve">
<g>
	<g>
		<path fill="#FFFFFF" stroke="#1D1D1B" stroke-width="7.5" stroke-miterlimit="3.864" d="M667.3,873.8L497.5,2015
			c0,0-205.8-122.2-193.1-281.5C218.3,1866.2,5,1885.6,5,1885.6L381,809L667.3,873.8z"/>
		<g>
			<defs>
				<path id="SVGID_1_" d="M667.3,873.8L497.5,2015c0,0-205.8-122.2-193.1-281.5C218.3,1866.2,5,1885.6,5,1885.6L381,809
					L667.3,873.8z"/>
			</defs>
			<clipPath id="SVGID_2_">
				<use xlink:href="#SVGID_1_"  overflow="visible"/>
			</clipPath>
			<g clip-path="url(#SVGID_2_)">
				<line fill="none" stroke="#1D1D1B" stroke-width="5" x1="667.3" y1="873.8" x2="497.5" y2="2015"/>
				<line fill="none" stroke="#1D1D1B" stroke-width="5" x1="656.3" y1="871.3" x2="478.5" y2="2010.1"/>
				<line fill="none" stroke="#1D1D1B" stroke-width="5" x1="645.3" y1="868.8" x2="459.6" y2="2005.1"/>
				<line fill="none" stroke="#1D1D1B" stroke-width="5" x1="634.3" y1="866.3" x2="440.7" y2="2000.1"/>
				<line fill="none" stroke="#1D1D1B" stroke-width="5" x1="623.2" y1="863.8" x2="421.7" y2="1995.1"/>
				<line fill="none" stroke="#1D1D1B" stroke-width="5" x1="612.2" y1="861.3" x2="402.8" y2="1990.1"/>
				<line fill="none" stroke="#1D1D1B" stroke-width="5" x1="601.2" y1="858.9" x2="383.8" y2="1985.2"/>
				<line fill="none" stroke="#1D1D1B" stroke-width="5" x1="590.2" y1="856.4" x2="364.9" y2="1980.2"/>
				<line fill="none" stroke="#1D1D1B" stroke-width="5" x1="579.2" y1="853.9" x2="346" y2="1975.2"/>
				<line fill="none" stroke="#1D1D1B" stroke-width="5" x1="568.2" y1="851.4" x2="327" y2="1970.2"/>
				<line fill="none" stroke="#1D1D1B" stroke-width="5" x1="557.2" y1="848.9" x2="308.1" y2="1965.3"/>
				<line fill="none" stroke="#1D1D1B" stroke-width="5" x1="546.2" y1="846.4" x2="289.1" y2="1960.3"/>
				<line fill="none" stroke="#1D1D1B" stroke-width="5" x1="535.1" y1="843.9" x2="270.2" y2="1955.3"/>
				<line fill="none" stroke="#1D1D1B" stroke-width="5" x1="524.1" y1="841.4" x2="251.3" y2="1950.3"/>
				<line fill="none" stroke="#1D1D1B" stroke-width="5" x1="513.1" y1="838.9" x2="232.3" y2="1945.4"/>
				<line fill="none" stroke="#1D1D1B" stroke-width="5" x1="502.1" y1="836.4" x2="213.4" y2="1940.4"/>
				<line fill="none" stroke="#1D1D1B" stroke-width="5" x1="491.1" y1="833.9" x2="194.4" y2="1935.4"/>
				<line fill="none" stroke="#1D1D1B" stroke-width="5" x1="480.1" y1="831.4" x2="175.5" y2="1930.4"/>
				<line fill="none" stroke="#1D1D1B" stroke-width="5" x1="469.1" y1="828.9" x2="156.5" y2="1925.4"/>
				<line fill="none" stroke="#1D1D1B" stroke-width="5" x1="458.1" y1="826.5" x2="137.6" y2="1920.5"/>
				<line fill="none" stroke="#1D1D1B" stroke-width="5" x1="447" y1="824" x2="118.7" y2="1915.5"/>
				<line fill="none" stroke="#1D1D1B" stroke-width="5" x1="436" y1="821.5" x2="99.7" y2="1910.5"/>
				<line fill="none" stroke="#1D1D1B" stroke-width="5" x1="425" y1="819" x2="80.8" y2="1905.5"/>
				<line fill="none" stroke="#1D1D1B" stroke-width="5" x1="414" y1="816.5" x2="61.8" y2="1900.6"/>
				<line fill="none" stroke="#1D1D1B" stroke-width="5" x1="403" y1="814" x2="42.9" y2="1895.6"/>
				<line fill="none" stroke="#1D1D1B" stroke-width="5" x1="392" y1="811.5" x2="24" y2="1890.6"/>
				<line fill="none" stroke="#1D1D1B" stroke-width="5" x1="381" y1="809" x2="5" y2="1885.6"/>
			</g>
			<use xlink:href="#SVGID_1_"  overflow="visible" fill="none" stroke="#1D1D1B" stroke-width="5" stroke-miterlimit="3.864"/>
		</g>
	</g>
	<g>
		<path fill="#FFFFFF" stroke="#1D1D1B" stroke-width="7.5" stroke-miterlimit="3.864" d="M692.8,873.8L862.6,2015
			c0,0,205.8-122.2,193.1-281.5c86.1,132.7,299.4,152.1,299.4,152.1L979.1,809L692.8,873.8z"/>
		<g>
			<defs>
				<path id="SVGID_3_" d="M692.8,873.8L862.6,2015c0,0,205.8-122.2,193.1-281.5c86.1,132.7,299.4,152.1,299.4,152.1L979.1,809
					L692.8,873.8z"/>
			</defs>
			<clipPath id="SVGID_4_">
				<use xlink:href="#SVGID_3_"  overflow="visible"/>
			</clipPath>
			<g clip-path="url(#SVGID_4_)">
				<line fill="none" stroke="#1D1D1B" stroke-width="5" x1="692.8" y1="873.8" x2="862.6" y2="2015"/>
				<line fill="none" stroke="#1D1D1B" stroke-width="5" x1="703.8" y1="871.3" x2="881.6" y2="2010.1"/>
				<line fill="none" stroke="#1D1D1B" stroke-width="5" x1="714.8" y1="868.8" x2="900.5" y2="2005.1"/>
				<line fill="none" stroke="#1D1D1B" stroke-width="5" x1="725.9" y1="866.3" x2="919.4" y2="2000.1"/>
				<line fill="none" stroke="#1D1D1B" stroke-width="5" x1="736.9" y1="863.8" x2="938.4" y2="1995.1"/>
				<line fill="none" stroke="#1D1D1B" stroke-width="5" x1="747.9" y1="861.3" x2="957.3" y2="1990.1"/>
				<line fill="none" stroke="#1D1D1B" stroke-width="5" x1="758.9" y1="858.9" x2="976.3" y2="1985.2"/>
				<line fill="none" stroke="#1D1D1B" stroke-width="5" x1="769.9" y1="856.4" x2="995.2" y2="1980.2"/>
				<line fill="none" stroke="#1D1D1B" stroke-width="5" x1="780.9" y1="853.9" x2="1014.1" y2="1975.2"/>
				<line fill="none" stroke="#1D1D1B" stroke-width="5" x1="791.9" y1="851.4" x2="1033.1" y2="1970.2"/>
				<line fill="none" stroke="#1D1D1B" stroke-width="5" x1="802.9" y1="848.9" x2="1052" y2="1965.3"/>
				<line fill="none" stroke="#1D1D1B" stroke-width="5" x1="814" y1="846.4" x2="1071" y2="1960.3"/>
				<line fill="none" stroke="#1D1D1B" stroke-width="5" x1="825" y1="843.9" x2="1089.9" y2="1955.3"/>
				<line fill="none" stroke="#1D1D1B" stroke-width="5" x1="836" y1="841.4" x2="1108.9" y2="1950.3"/>
				<line fill="none" stroke="#1D1D1B" stroke-width="5" x1="847" y1="838.9" x2="1127.8" y2="1945.4"/>
				<line fill="none" stroke="#1D1D1B" stroke-width="5" x1="858" y1="836.4" x2="1146.7" y2="1940.4"/>
				<line fill="none" stroke="#1D1D1B" stroke-width="5" x1="869" y1="833.9" x2="1165.7" y2="1935.4"/>
				<line fill="none" stroke="#1D1D1B" stroke-width="5" x1="880" y1="831.4" x2="1184.6" y2="1930.4"/>
				<line fill="none" stroke="#1D1D1B" stroke-width="5" x1="891" y1="828.9" x2="1203.6" y2="1925.4"/>
				<line fill="none" stroke="#1D1D1B" stroke-width="5" x1="902.1" y1="826.5" x2="1222.5" y2="1920.5"/>
				<line fill="none" stroke="#1D1D1B" stroke-width="5" x1="913.1" y1="824" x2="1241.4" y2="1915.5"/>
				<line fill="none" stroke="#1D1D1B" stroke-width="5" x1="924.1" y1="821.5" x2="1260.4" y2="1910.5"/>
				<line fill="none" stroke="#1D1D1B" stroke-width="5" x1="935.1" y1="819" x2="1279.3" y2="1905.5"/>
				<line fill="none" stroke="#1D1D1B" stroke-width="5" x1="946.1" y1="816.5" x2="1298.3" y2="1900.6"/>
				<line fill="none" stroke="#1D1D1B" stroke-width="5" x1="957.1" y1="814" x2="1317.2" y2="1895.6"/>
				<line fill="none" stroke="#1D1D1B" stroke-width="5" x1="968.1" y1="811.5" x2="1336.1" y2="1890.6"/>
				<line fill="none" stroke="#1D1D1B" stroke-width="5" x1="979.1" y1="809" x2="1355.1" y2="1885.6"/>
			</g>
			<use xlink:href="#SVGID_3_"  overflow="visible" fill="none" stroke="#1D1D1B" stroke-width="5" stroke-miterlimit="3.864"/>
		</g>
	</g>
</g>
<g>
	<g>
		<g>
			<path fill="#FFFFFF" stroke="#1D1D1B" stroke-width="7.5" stroke-miterlimit="3.864" d="M1300.1,664.9
				c-5.2-17.8-11.1-35.3-16-51.7c-4.9-16.4-8.8-31.7-10.9-45.5c-2.1-13.8-2.3-26.2-1-37.1c1.3-10.9,4.1-20.4,7.1-28.5
				c3-8.1,6.2-14.9,8.1-20.7c1.9-5.7,2.6-10.3,1.3-14.3c-1.3-4-4.6-7.3-9.5-10.8c-4.9-3.5-11.5-7.1-18.7-11.9
				c-7.2-4.8-15-10.8-22.5-18.9c-7.5-8.1-14.6-18.2-21-30.6c-6.5-12.4-12.3-27.1-17.9-43.2c-5.7-16.1-11.2-33.8-17.4-51.2
				s-13.2-34.8-21.4-50.2c-8.2-15.4-17.5-28.9-27.8-39.4c-10.3-10.5-21.4-18-32.3-22.7c-10.9-4.7-21.6-6.7-31-7.2
				c-9.4-0.6-17.3,0.2-23.4,0.5c-6.1,0.3-10.3,0.1-13.1-2c-2.8-2-4.3-6-5.9-11.8c-1.6-5.9-3.3-13.7-6.7-22.4
				c-3.4-8.7-8.6-18.3-16.5-27.2c-7.9-9-18.4-17.2-31.6-23.7c-13.2-6.5-28.9-11.3-46-14.3c-17.2-3-35.8-4.3-54.3-4.8
				c-18.5-0.5-37-0.3-54.1-0.7c-17.1-0.4-32.8-1.4-46.6-3.7c-13.8-2.3-25.6-6-35.6-10.6c-10-4.6-18.1-10.2-24.9-15.6
				c-6.8-5.4-12.3-10.5-17.1-14.1c-4.8-3.6-9-5.7-13.2-5.7c-4.2,0-8.4,2.1-13.2,5.7c-4.8,3.6-10.3,8.7-17.1,14.1
				c-6.8,5.4-14.9,10.9-24.9,15.6c-10,4.6-21.8,8.3-35.6,10.6c-13.8,2.3-29.5,3.3-46.6,3.7c-17.1,0.4-35.5,0.2-54.1,0.7
				c-18.6,0.5-37.2,1.8-54.3,4.8c-17.2,3-32.9,7.8-46,14.3c-13.1,6.5-23.7,14.8-31.6,23.7c-7.9,8.9-13,18.5-16.5,27.2
				c-3.4,8.7-5.2,16.5-6.8,22.4c-1.6,5.9-3.1,9.8-5.9,11.8c-2.8,2.1-7,2.3-13.1,2c-6.1-0.3-14-1.1-23.4-0.5
				c-9.3,0.6-20.1,2.5-31,7.2c-10.9,4.7-22.1,12.2-32.3,22.7c-10.3,10.5-19.6,24-27.8,39.4c-8.2,15.4-15.1,32.7-21.4,50.2
				c-6.2,17.5-11.8,35.1-17.4,51.2c-5.7,16.1-11.5,30.8-17.9,43.2c-6.4,12.4-13.6,22.5-21,30.6c-7.5,8.1-15.3,14.1-22.5,18.9
				c-7.2,4.8-13.8,8.5-18.7,11.9c-4.9,3.5-8.2,6.8-9.5,10.8c-1.3,4-0.6,8.6,1.3,14.3c1.9,5.7,5.1,12.5,8.1,20.7
				c3,8.1,5.8,17.6,7.1,28.5c1.3,10.9,1.1,23.3-1,37.1c-2.1,13.8-6,29.1-10.9,45.5c-4.9,16.4-10.8,33.9-16,51.7s-9.8,35.9-12.2,53.2
				c-2.5,17.3-2.8,33.7-0.6,48.2c2.1,14.5,6.7,27.1,12.8,37.4c6.1,10.2,13.6,18.1,20.8,24.1c7.2,6,14.1,10,19.2,13.3
				c5.1,3.3,8.3,6,9.4,9.3c1.1,3.3,0,7.4-2.1,13c-2.2,5.7-5.4,13-7.7,22.1c-2.3,9.1-3.8,19.9-2.7,31.7c1.1,11.9,4.8,24.8,11.6,37.8
				c6.8,13,16.7,26.1,28.8,38.6c12.1,12.5,26.4,24.5,41.1,35.8c14.7,11.3,29.7,22,43.3,32.4c13.6,10.4,25.7,20.4,35.5,30.4
				c9.8,10,17.2,19.9,22.6,29.5c5.4,9.6,8.6,18.9,11,27.2s3.8,15.7,5.6,21.5c1.8,5.8,4,9.9,7.4,12.4c3.4,2.5,8,3.3,14,3.2
				c6-0.1,13.5-1,22.1-1.3c8.7-0.3,18.5-0.1,29.3,2.1c10.8,2.1,22.5,6.2,35,12.4c12.5,6.2,25.8,14.7,39.9,24.4
				c14.1,9.7,28.9,20.7,44.2,31.2c15.3,10.5,31.1,20.4,46.8,28.1c15.7,7.7,31.2,13,45.6,15.5c14.5,2.5,27.9,2,39.5-0.6
				c11.6-2.6,21.4-7.3,29.3-12.4c7.9-5,13.9-10.3,18.6-14.2c4.7-3.8,8.3-6.1,11.7-6.1s7,2.3,11.7,6.1c4.7,3.8,10.7,9.1,18.6,14.2
				c7.9,5,17.7,9.8,29.3,12.4c11.6,2.6,25,3.1,39.5,0.6c14.5-2.5,30-7.8,45.6-15.5c15.7-7.7,31.5-17.6,46.8-28.1
				c15.3-10.5,30.1-21.5,44.2-31.2c14.1-9.7,27.4-18.2,39.9-24.4c12.5-6.2,24.2-10.3,35-12.4c10.8-2.1,20.6-2.4,29.3-2.1
				c8.7,0.3,16.1,1.3,22.1,1.3c6,0.1,10.6-0.7,14-3.2s5.6-6.6,7.4-12.4c1.8-5.8,3.2-13.1,5.6-21.5c2.4-8.3,5.7-17.6,11-27.2
				c5.4-9.6,12.8-19.5,22.6-29.5c9.8-10,21.9-20,35.5-30.4c13.6-10.4,28.6-21.1,43.3-32.4c14.7-11.3,29-23.3,41.1-35.8
				c12.1-12.5,22-25.6,28.8-38.6c6.8-13,10.5-25.9,11.6-37.8c1.1-11.9-0.3-22.7-2.7-31.7c-2.4-9.1-5.6-16.4-7.7-22.1
				c-2.2-5.7-3.2-9.7-2.2-13c1.1-3.3,4.3-6,9.4-9.3c5.1-3.3,12-7.4,19.2-13.3c7.2-6,14.8-13.8,20.8-24.1
				c6.1-10.2,10.7-22.8,12.8-37.4c2.1-14.5,1.8-30.9-0.6-48.2C1309.8,700.8,1305.3,682.7,1300.1,664.9"/>
			<path fill="#1D1D1B" d="M1037.5,658.5c2-0.2,3.7-0.8,4.9-1.7c2.3-1.7,3.4-4.6,3.2-8.7c-0.1-1.8-0.4-3.5-1-4.9
				c-1.1-2.9-3-4.2-5.6-4.1c-2,0.1-3.3,0.8-4.1,2c-0.8,1.3-1.4,3.3-1.9,5.9l-0.9,4.9c-0.6,3.2-1.3,5.5-2.1,6.8
				c-1.4,2.3-3.6,3.6-6.5,3.7c-3.2,0.2-5.9-0.8-8.1-3c-2.2-2.1-3.3-5.2-3.5-9.3c-0.2-3.8,0.6-7,2.3-9.7c1.7-2.7,4.5-4.2,8.5-4.3
				l0.2,4.6c-1.9,0.3-3.4,0.9-4.3,1.8c-1.8,1.6-2.6,4.1-2.5,7.7c0.1,2.9,0.8,4.9,2.1,6.1c1.3,1.2,2.7,1.8,4.3,1.7
				c1.8-0.1,3-0.9,3.7-2.4c0.5-1,1-3.2,1.7-6.6l0.9-5.1c0.4-2.4,1.1-4.3,2-5.7c1.6-2.4,4-3.6,7.1-3.7c4-0.2,6.9,1.1,8.7,4
				c1.8,2.8,2.8,6.1,3,9.9c0.2,4.5-0.8,8-2.9,10.6c-2.1,2.6-5.2,4-9,4.1L1037.5,658.5z"/>
		</g>
		<polygon fill="#1D1D1B" points="1011.9,632.8 1011.2,627.9 1025.9,625.9 1023.3,607.4 1008.6,609.5 1007.9,604.6 1043.5,599.6 
			1044.1,604.5 1027.5,606.8 1030.1,625.3 1046.7,623 1047.4,627.8 		"/>
		<path fill="#1D1D1B" d="M1004.7,590.5l-1.3-5.3l31.9-20.9l1.2,5.2l-9.6,6l3.3,13.8l11.4,1.3l1.1,4.8L1004.7,590.5z M1023.5,577.8
			l-14.2,9l16.8,2L1023.5,577.8z"/>
		<g>
			<path fill="#1D1D1B" d="M999.9,571l-5.3-15.7c-0.9-2.6-1.2-4.9-1-6.8c0.4-3.7,2.5-6.2,6.4-7.5c2-0.7,3.8-0.8,5.4-0.4
				c1.6,0.4,3,1.2,4.3,2.5c0.1-1.5,0.5-2.8,1.1-3.7c0.7-1,1.9-1.8,3.9-2.6l4.5-1.7c1.3-0.5,2.2-0.9,2.8-1.3c1-0.7,1.5-1.4,1.6-2.2
				l0.8-0.3l1.9,5.6c-0.2,0.3-0.6,0.5-1,0.8c-0.4,0.3-1.3,0.6-2.6,1.1l-5.6,2.2c-2.2,0.9-3.4,2.2-3.6,4c-0.1,1,0.1,2.5,0.8,4.3
				l3.5,10.5l14.6-4.9l1.6,4.6L999.9,571z M1010.3,550.5c-0.7-2.2-1.7-3.7-3-4.7c-1.3-1-3.1-1.1-5.3-0.3c-2.4,0.8-3.8,2.3-4.1,4.3
				c-0.1,1.1,0.1,2.4,0.6,4l3.8,11.2l11.6-3.9L1010.3,550.5z"/>
		</g>
		<polygon fill="#1D1D1B" points="989.2,540.3 978.5,516.4 982.5,514.6 991.3,534.2 1001.2,529.7 993.1,511.6 996.9,509.9 1005,528 
			1016.1,523.1 1007.2,503.2 1011.1,501.4 1021.9,525.6 		"/>
		<g>
			<path fill="#1D1D1B" d="M965.5,449.6c1.5-1.4,2.5-2.8,3-4.2c0.9-2.7,0-5.7-2.5-8.9c-1.1-1.4-2.4-2.6-3.7-3.4
				c-2.6-1.6-4.9-1.6-6.9,0c-1.5,1.2-2.2,2.6-2.1,4c0.1,1.5,0.8,3.4,2,5.9l2.2,4.5c1.4,2.9,2.2,5.2,2.3,6.8c0.3,2.7-0.8,5-3.1,6.9
				c-2.5,2-5.3,2.8-8.3,2.3c-3-0.4-5.8-2.3-8.3-5.5c-2.3-2.9-3.6-6-3.8-9.2c-0.2-3.2,1.2-6,4.3-8.5l2.8,3.6c-1.3,1.4-2.2,2.7-2.5,4
				c-0.5,2.3,0.3,4.9,2.5,7.6c1.8,2.2,3.5,3.5,5.3,3.7c1.7,0.2,3.2-0.2,4.5-1.1c1.4-1.1,1.9-2.5,1.6-4.1c-0.2-1.1-1-3.2-2.5-6.3
				l-2.2-4.7c-1.1-2.2-1.7-4.2-1.7-5.8c-0.1-2.8,1.1-5.2,3.6-7.2c3.1-2.5,6.2-3.1,9.4-1.9c3.1,1.2,5.9,3.3,8.3,6.3
				c2.8,3.5,4.1,6.9,3.9,10.3c-0.2,3.4-1.8,6.3-4.9,8.6L965.5,449.6z"/>
		</g>
		<polygon fill="#1D1D1B" points="929.6,443.9 926.2,440.4 936.9,430.1 923.9,416.6 913.3,426.9 909.9,423.4 935.7,398.5 939.1,402 
			927,413.7 940,427.1 952,415.5 955.4,419 		"/>
		<path fill="#1D1D1B" d="M898.9,413.9l-4.2-3.6l13.5-35.7l4,3.5l-4.2,10.5l10.8,9.2l10-5.6l3.8,3.2L898.9,413.9z M906.7,392.6
			l-6.2,15.6l14.7-8.3L906.7,392.6z"/>
		<g>
			<path fill="#1D1D1B" d="M883.6,400.9l-13.6-9.6c-2.2-1.6-3.8-3.2-4.8-4.9c-1.9-3.2-1.6-6.5,0.8-9.8c1.2-1.8,2.6-2.9,4.1-3.5
				c1.5-0.6,3.2-0.8,4.9-0.5c-0.8-1.3-1.2-2.5-1.3-3.7c0-1.2,0.5-2.6,1.6-4.4l2.6-4c0.8-1.1,1.3-2,1.5-2.7c0.4-1.1,0.4-2,0-2.7
				l0.5-0.7l4.9,3.4c-0.1,0.3-0.2,0.7-0.4,1.2c-0.2,0.4-0.7,1.3-1.4,2.4l-3.2,5.1c-1.3,2-1.5,3.8-0.6,5.4c0.5,0.9,1.6,1.9,3.2,3.1
				l9,6.4l8.9-12.6l4,2.8L883.6,400.9z M880,378.2c-1.9-1.3-3.6-2-5.2-2c-1.6,0-3.1,0.9-4.5,2.9c-1.5,2.1-1.7,4-0.7,5.9
				c0.5,1,1.5,1.9,2.8,2.9l9.7,6.8l7.1-10L880,378.2z"/>
		</g>
		<polygon fill="#1D1D1B" points="856.9,382.4 834.2,369.3 836.4,365.5 855,376.2 860.4,366.8 843.2,356.9 845.3,353.3 862.5,363.2 
			868.5,352.6 849.6,341.8 851.8,338.1 874.8,351.3 		"/>
		<g>
			<path fill="#1D1D1B" d="M784.4,323c0.4-2,0.4-3.7-0.1-5.2c-0.9-2.7-3.3-4.6-7.3-5.7c-1.8-0.5-3.4-0.7-5-0.6
				c-3.1,0.2-4.9,1.6-5.6,4.1c-0.5,1.9-0.3,3.4,0.7,4.5c1,1.1,2.6,2.3,5,3.6l4.4,2.4c2.9,1.5,4.8,2.9,5.9,4.1
				c1.8,2.1,2.3,4.5,1.5,7.4c-0.8,3.1-2.6,5.4-5.3,6.8s-6,1.5-10,0.5c-3.6-1-6.5-2.7-8.5-5.2c-2-2.5-2.5-5.6-1.5-9.4l4.4,1.2
				c-0.3,1.9-0.2,3.5,0.3,4.7c0.9,2.2,3.1,3.8,6.5,4.7c2.8,0.8,4.9,0.7,6.4-0.1c1.5-0.8,2.5-2,2.9-3.6c0.5-1.7,0.1-3.1-1.1-4.3
				c-0.8-0.8-2.7-2-5.8-3.6l-4.5-2.4c-2.2-1.2-3.8-2.4-4.8-3.7c-1.7-2.2-2.2-4.9-1.3-7.9c1.1-3.8,3.2-6.2,6.4-7.1
				c3.2-0.9,6.7-0.8,10.4,0.2c4.3,1.2,7.4,3.2,9.2,6.1c1.8,2.9,2.2,6.1,1.1,9.9L784.4,323z"/>
		</g>
		<polygon fill="#1D1D1B" points="752,339.4 747.2,338.5 749.8,324 731.4,320.7 728.8,335.3 724,334.4 730.2,299.1 735.1,300 
			732.2,316.5 750.5,319.7 753.4,303.2 758.3,304.1 		"/>
		<path fill="#1D1D1B" d="M709.6,333.1l-5.5-0.4l-10-36.8l5.3,0.4l2.8,11l14.1,1.1l4.7-10.4l5,0.4L709.6,333.1z M703.3,311.4
			l4.1,16.2l7-15.3L703.3,311.4z"/>
		<g>
			<path fill="#1D1D1B" d="M689.5,331.7l-16.6,0.2c-2.7,0-5-0.3-6.8-1.1c-3.4-1.5-5.1-4.3-5.2-8.4c0-2.1,0.4-3.9,1.3-5.3
				s2.1-2.5,3.7-3.3c-1.4-0.6-2.5-1.3-3.2-2.2c-0.7-0.9-1.1-2.4-1.2-4.5l-0.2-4.8c-0.1-1.4-0.2-2.4-0.4-3.1
				c-0.3-1.1-0.8-1.9-1.6-2.2l0-0.8l6-0.1c0.2,0.3,0.3,0.7,0.4,1.2c0.1,0.5,0.2,1.4,0.3,2.8l0.4,6c0.1,2.3,1,3.9,2.7,4.7
				c0.9,0.4,2.4,0.6,4.4,0.6l11.1-0.1l-0.2-15.4l4.8-0.1L689.5,331.7z M673.3,315.5c-2.3,0-4.1,0.5-5.4,1.4c-1.3,0.9-2,2.6-1.9,5
				c0,2.6,1,4.3,2.8,5.2c1,0.5,2.3,0.7,4,0.7l11.9-0.1l-0.1-12.3L673.3,315.5z"/>
		</g>
		<polygon fill="#1D1D1B" points="657,332.4 631,335.2 630.6,330.8 651.8,328.5 650.7,317.7 631,319.8 630.6,315.7 650.3,313.6 
			649,301.5 627.3,303.8 626.9,299.6 653.2,296.8 		"/>
		<g>
			<path fill="#1D1D1B" d="M563.5,327c-0.8-1.9-1.9-3.2-3.1-4.1c-2.4-1.7-5.4-1.8-9.2-0.4c-1.7,0.7-3.2,1.5-4.4,2.5
				c-2.4,2-3.1,4.2-2.2,6.6c0.7,1.8,1.7,2.9,3.2,3.3c1.4,0.3,3.5,0.3,6.2,0l4.9-0.7c3.2-0.4,5.6-0.5,7.1-0.1
				c2.7,0.6,4.5,2.3,5.6,5.1c1.1,3,1,5.9-0.3,8.6c-1.4,2.7-4,4.8-7.8,6.2c-3.5,1.3-6.8,1.6-9.9,0.8c-3.1-0.8-5.3-3-6.8-6.8l4.3-1.6
				c0.9,1.7,1.9,2.9,3,3.6c2.1,1.2,4.7,1.2,8.1,0c2.7-1,4.4-2.3,5.2-3.9c0.7-1.6,0.8-3.1,0.3-4.6c-0.6-1.6-1.8-2.6-3.4-2.8
				c-1.1-0.1-3.3,0-6.8,0.5l-5.1,0.7c-2.5,0.3-4.5,0.3-6.1-0.1c-2.7-0.8-4.6-2.7-5.8-5.6c-1.4-3.7-1-6.9,1.1-9.5
				c2.1-2.6,5-4.6,8.5-6c4.2-1.6,7.8-1.7,11-0.5c3.2,1.2,5.4,3.7,6.7,7.3L563.5,327z"/>
		</g>
		<polygon fill="#1D1D1B" points="546.9,359.3 542.5,361.4 536,348.1 519.3,356.3 525.8,369.6 521.3,371.7 505.7,339.5 510.1,337.3 
			517.4,352.4 534.2,344.3 526.8,329.2 531.2,327 		"/>
		<path fill="#1D1D1B" d="M508.9,379.2l-4.7,2.8l-29.8-23.9l4.5-2.8l8.7,7.3l12.1-7.4l-2.3-11.2l4.3-2.6L508.9,379.2z M491.1,365.2
			l12.9,10.7l-3.3-16.5L491.1,365.2z"/>
		<g>
			<path fill="#1D1D1B" d="M491.9,389.8l-13.3,9.9c-2.2,1.6-4.2,2.7-6.1,3.1c-3.6,0.8-6.7-0.5-9.1-3.8c-1.3-1.7-2-3.4-2.1-5
				c-0.1-1.6,0.2-3.2,1-4.9c-1.5,0.4-2.8,0.4-3.9,0.1s-2.3-1.3-3.6-2.9l-3-3.8c-0.9-1.1-1.6-1.8-2.1-2.3c-0.9-0.7-1.8-1-2.6-0.8
				l-0.5-0.7l4.8-3.6c0.3,0.1,0.7,0.4,1,0.7c0.4,0.3,1,1,1.9,2.1l3.8,4.6c1.5,1.8,3.1,2.6,4.9,2.2c1-0.2,2.3-0.9,3.9-2.1l8.9-6.6
				l-9.2-12.3l3.9-2.9L491.9,389.8z M469.1,386.2c-1.8,1.4-3,2.8-3.5,4.3c-0.5,1.5-0.1,3.2,1.4,5.1c1.5,2,3.3,2.9,5.4,2.5
				c1.1-0.2,2.3-0.8,3.6-1.8l9.5-7.1l-7.3-9.8L469.1,386.2z"/>
		</g>
		<polygon fill="#1D1D1B" points="466,409.5 446.6,427 443.6,423.7 459.5,409.4 452.2,401.3 437.5,414.6 434.7,411.5 449.4,398.2 
			441.3,389.2 425.1,403.8 422.3,400.6 441.9,382.8 		"/>
		<g>
			<path fill="#1D1D1B" d="M387.1,460c-1.8-1-3.4-1.5-4.9-1.5c-2.9,0-5.4,1.8-7.7,5.2c-1,1.5-1.7,3.1-2.1,4.6c-0.8,3,0,5.2,2.1,6.6
				c1.6,1.1,3.1,1.3,4.5,0.8c1.4-0.6,3-1.8,5-3.7l3.6-3.5c2.4-2.2,4.2-3.7,5.7-4.3c2.5-1.1,5-0.8,7.5,0.8c2.7,1.8,4.3,4.2,4.8,7.2
				c0.5,3-0.4,6.2-2.6,9.6c-2.1,3.1-4.6,5.3-7.5,6.5c-3,1.2-6.1,0.7-9.4-1.5l2.5-3.8c1.7,0.9,3.3,1.2,4.6,1.1
				c2.4-0.2,4.5-1.8,6.5-4.8c1.6-2.4,2.2-4.4,1.9-6.2c-0.3-1.7-1.1-3-2.5-3.9c-1.5-1-3-1.1-4.4-0.3c-1,0.5-2.7,2-5.2,4.4l-3.7,3.6
				c-1.8,1.7-3.5,2.9-5,3.4c-2.6,1-5.3,0.6-8-1.2c-3.3-2.2-4.9-5-4.7-8.3c0.2-3.4,1.3-6.6,3.4-9.8c2.4-3.7,5.3-6,8.6-6.9
				c3.3-0.9,6.5-0.2,9.7,2L387.1,460z"/>
		</g>
		<polygon fill="#1D1D1B" points="392.7,495.9 390.4,500.2 377.3,493.2 368.5,509.7 381.6,516.7 379.3,521 347.7,504.1 350,499.8 
			364.8,507.7 373.5,491.2 358.7,483.4 361.1,479 		"/>
		<path fill="#1D1D1B" d="M373.6,534.3l-2.1,5.1l-38.1-1.8l2.1-4.9l11.3,0.8l5.5-13.1l-8.4-7.7l1.9-4.6L373.6,534.3z M351,533.6
			l16.7,1.1l-12.4-11.4L351,533.6z"/>
		<g>
			<path fill="#1D1D1B" d="M366.1,552.9l-4.9,15.8c-0.8,2.6-1.9,4.7-3.1,6.1c-2.5,2.8-5.7,3.5-9.6,2.3c-2.1-0.6-3.6-1.6-4.6-2.8
				c-1-1.3-1.7-2.8-2-4.5c-1,1.2-2,2-3.1,2.4c-1.1,0.4-2.7,0.3-4.7-0.2l-4.6-1.3c-1.3-0.4-2.3-0.6-3-0.6c-1.2-0.1-2,0.2-2.6,0.8
				l-0.8-0.2l1.8-5.7c0.4-0.1,0.8-0.1,1.3,0c0.5,0,1.4,0.3,2.8,0.6l5.8,1.5c2.3,0.6,4,0.2,5.3-1.1c0.7-0.8,1.3-2.1,1.9-4l3.3-10.6
				l-14.7-4.6l1.4-4.6L366.1,552.9z M345.6,563.4c-0.7,2.2-0.8,4-0.3,5.6c0.5,1.5,1.9,2.7,4.1,3.4c2.4,0.8,4.4,0.4,5.8-1.1
				c0.8-0.8,1.4-2,1.9-3.6l3.5-11.3l-11.7-3.6L345.6,563.4z"/>
		</g>
		<polygon fill="#1D1D1B" points="356.7,584.1 351.3,609.7 347,608.8 351.4,587.8 340.8,585.6 336.7,604.9 332.6,604.1 336.7,584.7 
			324.8,582.2 320.3,603.5 316.1,602.6 321.6,576.7 		"/>
		<g>
			<path fill="#1D1D1B" d="M322.6,671.3c-2,0.2-3.7,0.8-4.9,1.7c-2.3,1.7-3.4,4.6-3.2,8.7c0.1,1.8,0.4,3.5,1,4.9
				c1.1,2.8,3,4.2,5.6,4.1c1.9-0.1,3.3-0.8,4.1-2c0.8-1.3,1.4-3.2,1.9-5.9l0.9-4.9c0.6-3.2,1.3-5.5,2.1-6.8c1.4-2.3,3.6-3.6,6.5-3.7
				c3.2-0.1,5.9,0.9,8.1,3c2.2,2.1,3.3,5.2,3.5,9.3c0.2,3.8-0.6,7-2.3,9.7c-1.7,2.7-4.5,4.1-8.5,4.3l-0.2-4.6
				c1.9-0.3,3.3-0.9,4.3-1.8c1.8-1.6,2.6-4.1,2.5-7.7c-0.1-2.9-0.8-4.9-2.1-6.1c-1.3-1.2-2.7-1.8-4.3-1.7c-1.8,0.1-3,0.9-3.8,2.4
				c-0.5,1-1,3.2-1.7,6.6l-0.9,5.1c-0.4,2.4-1.1,4.3-2,5.7c-1.6,2.3-4,3.6-7.1,3.7c-4,0.2-6.9-1.1-8.7-4c-1.8-2.8-2.8-6.1-3-9.9
				c-0.2-4.5,0.8-8,2.9-10.6c2.1-2.6,5.1-4,9-4.1L322.6,671.3z"/>
		</g>
		<polygon fill="#1D1D1B" points="348.2,697.1 348.9,701.9 334.2,704 336.8,722.5 351.5,720.4 352.2,725.3 316.6,730.2 316,725.4 
			332.6,723.1 330,704.6 313.4,706.9 312.7,702 		"/>
		<path fill="#1D1D1B" d="M355.4,739.4l1.3,5.3l-31.9,20.9l-1.2-5.2l9.6-6l-3.3-13.8l-11.4-1.3l-1.1-4.8L355.4,739.4z M336.6,752
			l14.2-8.9l-16.8-2L336.6,752z"/>
		<g>
			<path fill="#1D1D1B" d="M360.2,758.9l5.3,15.7c0.9,2.6,1.2,4.9,1,6.8c-0.4,3.7-2.5,6.2-6.4,7.5c-2,0.7-3.8,0.8-5.4,0.4
				c-1.6-0.4-3-1.2-4.3-2.5c-0.1,1.5-0.5,2.8-1.1,3.7c-0.6,1-2,1.8-3.9,2.6l-4.5,1.7c-1.3,0.5-2.2,0.9-2.8,1.3
				c-1,0.6-1.5,1.4-1.6,2.2l-0.8,0.3l-1.9-5.6c0.2-0.3,0.6-0.5,1-0.8s1.3-0.6,2.6-1.1l5.6-2.2c2.2-0.9,3.4-2.2,3.6-4
				c0.1-1-0.1-2.5-0.8-4.3l-3.6-10.5l-14.6,4.9l-1.6-4.6L360.2,758.9z M349.8,779.4c0.7,2.2,1.7,3.7,3,4.7c1.3,1,3.1,1.1,5.3,0.3
				c2.4-0.8,3.8-2.3,4.1-4.3c0.1-1.1-0.1-2.4-0.6-4l-3.8-11.2l-11.6,3.9L349.8,779.4z"/>
		</g>
		<polygon fill="#1D1D1B" points="370.9,789.6 381.6,813.5 377.6,815.2 368.8,795.7 358.9,800.1 367,818.2 363.2,819.9 355.1,801.8 
			344,806.8 352.9,826.7 349,828.4 338.2,804.2 		"/>
		<g>
			<path fill="#1D1D1B" d="M394.6,880.2c-1.5,1.4-2.5,2.8-3,4.2c-0.9,2.7,0,5.7,2.5,8.9c1.1,1.4,2.4,2.6,3.7,3.4
				c2.6,1.6,4.9,1.6,6.9,0c1.5-1.2,2.2-2.6,2.1-4c-0.1-1.5-0.8-3.4-2-5.9l-2.2-4.5c-1.4-2.9-2.2-5.2-2.4-6.8c-0.3-2.7,0.8-5,3.1-6.9
				c2.5-2,5.3-2.8,8.3-2.3c3,0.5,5.8,2.3,8.3,5.5c2.3,2.9,3.6,6,3.8,9.2c0.2,3.2-1.2,6-4.3,8.5l-2.9-3.6c1.4-1.4,2.2-2.7,2.5-4
				c0.5-2.3-0.3-4.9-2.5-7.6c-1.8-2.2-3.5-3.5-5.3-3.7c-1.7-0.2-3.2,0.2-4.5,1.1c-1.4,1.1-1.9,2.5-1.6,4.1c0.2,1.1,1,3.2,2.5,6.3
				l2.2,4.7c1.1,2.2,1.6,4.2,1.7,5.8c0.1,2.8-1.1,5.2-3.6,7.2c-3.1,2.5-6.2,3.1-9.4,1.9c-3.1-1.2-5.9-3.3-8.3-6.3
				c-2.8-3.5-4.1-6.9-3.9-10.3c0.2-3.4,1.8-6.3,4.9-8.6L394.6,880.2z"/>
		</g>
		<polygon fill="#1D1D1B" points="430.5,886 433.9,889.5 423.2,899.8 436.2,913.2 446.8,902.9 450.2,906.5 424.4,931.4 421,927.8 
			433.1,916.2 420.1,902.8 408.1,914.4 404.7,910.9 		"/>
		<path fill="#1D1D1B" d="M461.2,916l4.2,3.6l-13.5,35.7l-4-3.5l4.2-10.5l-10.8-9.2l-10,5.6l-3.8-3.2L461.2,916z M453.4,937.3
			l6.2-15.6l-14.7,8.3L453.4,937.3z"/>
		<g>
			<path fill="#1D1D1B" d="M476.5,928.9l13.5,9.6c2.2,1.6,3.8,3.2,4.8,4.9c1.9,3.2,1.6,6.5-0.8,9.8c-1.2,1.8-2.6,2.9-4.1,3.5
				c-1.5,0.6-3.2,0.8-4.9,0.5c0.8,1.3,1.2,2.5,1.3,3.7c0,1.2-0.5,2.6-1.6,4.4l-2.6,4c-0.8,1.1-1.3,2-1.5,2.7c-0.4,1.1-0.4,2,0,2.7
				l-0.5,0.7l-4.9-3.5c0.1-0.3,0.2-0.7,0.4-1.2c0.2-0.5,0.7-1.3,1.4-2.4l3.2-5.1c1.3-2,1.4-3.8,0.6-5.4c-0.5-0.9-1.6-1.9-3.2-3.1
				l-9-6.4l-8.9,12.6l-4-2.8L476.5,928.9z M480.1,951.6c1.9,1.3,3.6,2,5.2,2c1.6,0,3.1-0.9,4.5-2.9c1.5-2.1,1.7-4,0.7-5.9
				c-0.5-1-1.5-1.9-2.8-2.9l-9.7-6.9l-7.1,10L480.1,951.6z"/>
		</g>
		<polygon fill="#1D1D1B" points="503.2,947.5 525.9,960.5 523.7,964.3 505.1,953.7 499.7,963.1 516.9,973 514.8,976.6 497.7,966.7 
			491.6,977.2 510.5,988.1 508.3,991.8 485.4,978.6 		"/>
		<g>
			<path fill="#1D1D1B" d="M575.7,1006.9c-0.4,2-0.4,3.7,0.1,5.2c0.9,2.7,3.3,4.6,7.3,5.7c1.8,0.5,3.4,0.7,5,0.6
				c3.1-0.2,4.9-1.6,5.6-4.1c0.5-1.9,0.3-3.4-0.7-4.5c-1-1.1-2.7-2.3-5-3.6l-4.4-2.3c-2.9-1.5-4.8-2.9-5.9-4.1
				c-1.8-2-2.3-4.5-1.5-7.4c0.8-3.1,2.6-5.4,5.3-6.8c2.7-1.4,6-1.5,10-0.5c3.6,1,6.5,2.7,8.5,5.2c2,2.5,2.5,5.6,1.5,9.4l-4.4-1.2
				c0.3-1.9,0.2-3.5-0.3-4.7c-0.9-2.2-3.1-3.8-6.5-4.7c-2.8-0.8-4.9-0.7-6.4,0.1c-1.5,0.8-2.5,2-2.9,3.5c-0.5,1.7-0.1,3.1,1.1,4.3
				c0.8,0.8,2.7,2,5.8,3.6l4.5,2.4c2.2,1.2,3.8,2.4,4.8,3.7c1.8,2.2,2.2,4.9,1.3,7.9c-1.1,3.8-3.2,6.2-6.4,7.1
				c-3.2,0.9-6.7,0.8-10.4-0.2c-4.3-1.2-7.4-3.2-9.2-6.1s-2.2-6.1-1.1-9.9L575.7,1006.9z"/>
		</g>
		<polygon fill="#1D1D1B" points="608.1,990.5 612.9,991.3 610.3,1005.9 628.7,1009.2 631.3,994.6 636.1,995.4 629.9,1030.7 
			625,1029.9 627.9,1013.4 609.6,1010.1 606.7,1026.6 601.8,1025.8 		"/>
		<path fill="#1D1D1B" d="M650.5,996.7l5.5,0.5l10,36.8l-5.3-0.4l-2.8-11l-14.1-1.2l-4.7,10.4l-5-0.4L650.5,996.7z M656.8,1018.5
			l-4.1-16.2l-7.1,15.3L656.8,1018.5z"/>
		<g>
			<path fill="#1D1D1B" d="M670.6,998.2l16.6-0.2c2.7,0,5,0.3,6.8,1.1c3.4,1.5,5.1,4.3,5.2,8.4c0,2.1-0.4,3.9-1.3,5.3
				c-0.9,1.4-2.1,2.5-3.7,3.3c1.4,0.6,2.5,1.3,3.2,2.2c0.7,0.9,1.1,2.4,1.2,4.5l0.2,4.8c0.1,1.4,0.2,2.4,0.4,3
				c0.3,1.1,0.8,1.9,1.6,2.2l0,0.8l-6,0.1c-0.2-0.3-0.3-0.7-0.4-1.2c-0.1-0.5-0.2-1.4-0.3-2.8l-0.4-6c-0.1-2.3-1-3.9-2.7-4.7
				c-0.9-0.4-2.4-0.6-4.4-0.6l-11.1,0.1l0.2,15.4l-4.9,0.1L670.6,998.2z M686.8,1014.4c2.3,0,4.1-0.5,5.4-1.4c1.3-0.9,2-2.6,1.9-5
				c0-2.6-1-4.3-2.8-5.2c-1-0.5-2.3-0.7-4-0.7l-11.9,0.2l0.2,12.3L686.8,1014.4z"/>
		</g>
		<polygon fill="#1D1D1B" points="703.1,997.4 729.1,994.7 729.6,999 708.3,1001.3 709.4,1012.1 729.1,1010 729.5,1014.2 
			709.9,1016.3 711.1,1028.4 732.8,1026 733.3,1030.3 706.9,1033.1 		"/>
		<g>
			<path fill="#1D1D1B" d="M796.6,1002.9c0.8,1.9,1.8,3.2,3.1,4.1c2.4,1.7,5.4,1.8,9.2,0.4c1.7-0.7,3.2-1.5,4.4-2.5
				c2.4-2,3.1-4.2,2.2-6.6c-0.7-1.8-1.7-2.9-3.2-3.3c-1.4-0.3-3.5-0.3-6.2,0l-4.9,0.7c-3.2,0.5-5.6,0.5-7.1,0.1
				c-2.7-0.6-4.5-2.3-5.6-5.1c-1.1-3-1-5.9,0.3-8.6c1.4-2.7,4-4.8,7.8-6.2c3.5-1.3,6.8-1.6,9.9-0.8c3.1,0.8,5.3,3,6.8,6.8l-4.3,1.6
				c-0.9-1.7-1.9-2.9-3-3.6c-2-1.2-4.7-1.2-8,0c-2.7,1-4.4,2.3-5.2,3.9c-0.7,1.6-0.8,3.1-0.3,4.6c0.6,1.6,1.8,2.6,3.4,2.8
				c1.1,0.1,3.3,0,6.8-0.5l5.1-0.7c2.5-0.3,4.5-0.3,6.1,0.2c2.7,0.8,4.6,2.7,5.8,5.6c1.4,3.7,1,6.9-1.1,9.5c-2.1,2.6-5,4.6-8.5,6
				c-4.2,1.6-7.8,1.7-11,0.5c-3.2-1.2-5.4-3.7-6.7-7.3L796.6,1002.9z"/>
		</g>
		<polygon fill="#1D1D1B" points="813.2,970.6 817.6,968.4 824.1,981.8 840.8,973.6 834.3,960.3 838.8,958.1 854.5,990.4 850,992.5 
			842.7,977.4 825.9,985.6 833.3,1000.7 828.9,1002.8 		"/>
		<path fill="#1D1D1B" d="M851.2,950.7l4.7-2.9l29.8,23.9l-4.5,2.8l-8.7-7.3l-12.1,7.4l2.3,11.2l-4.3,2.6L851.2,950.7z M869,964.6
			l-12.9-10.7l3.3,16.5L869,964.6z"/>
		<g>
			<path fill="#1D1D1B" d="M868.2,940.1l13.3-9.9c2.2-1.6,4.2-2.7,6.1-3.1c3.6-0.8,6.7,0.5,9.1,3.8c1.3,1.7,2,3.4,2.1,5
				c0.1,1.6-0.2,3.2-1,4.9c1.5-0.4,2.8-0.4,3.9-0.1s2.3,1.3,3.6,2.9l3,3.8c0.9,1.1,1.6,1.8,2.1,2.3c0.9,0.7,1.8,1,2.6,0.8l0.5,0.7
				l-4.8,3.6c-0.3-0.2-0.7-0.4-1-0.7c-0.4-0.3-1-1-1.9-2.1l-3.8-4.6c-1.5-1.8-3.1-2.6-4.9-2.2c-1,0.2-2.3,0.9-3.9,2.1l-8.9,6.6
				l9.2,12.3l-3.9,2.9L868.2,940.1z M891,943.7c1.8-1.4,3-2.8,3.5-4.3s0.1-3.2-1.4-5.1c-1.5-2-3.3-2.9-5.3-2.5
				c-1.1,0.2-2.3,0.8-3.6,1.8l-9.5,7.1l7.3,9.8L891,943.7z"/>
		</g>
		<polygon fill="#1D1D1B" points="894.1,920.4 913.5,902.9 916.5,906.1 900.6,920.5 907.9,928.6 922.6,915.3 925.4,918.4 
			910.7,931.7 918.8,940.7 935,926.1 937.8,929.2 918.2,947 		"/>
		<g>
			<path fill="#1D1D1B" d="M973,869.8c1.8,1,3.4,1.5,4.9,1.5c2.9,0,5.4-1.8,7.7-5.2c1-1.5,1.7-3.1,2.1-4.6c0.8-3,0-5.2-2.1-6.6
				c-1.6-1.1-3.1-1.3-4.5-0.8c-1.4,0.6-3,1.8-5,3.7l-3.6,3.5c-2.4,2.3-4.2,3.7-5.7,4.3c-2.5,1.1-5,0.8-7.5-0.8
				c-2.7-1.8-4.3-4.2-4.8-7.2c-0.5-3,0.4-6.2,2.6-9.6c2.1-3.1,4.6-5.3,7.5-6.5c3-1.2,6.1-0.7,9.4,1.5l-2.5,3.8
				c-1.7-0.8-3.3-1.2-4.6-1.1c-2.4,0.2-4.5,1.8-6.5,4.8c-1.6,2.4-2.2,4.4-1.9,6.2c0.3,1.7,1.1,3,2.5,3.9c1.5,1,3,1.1,4.4,0.3
				c1-0.5,2.7-2,5.2-4.4l3.7-3.6c1.8-1.7,3.5-2.9,5-3.4c2.7-1,5.3-0.6,8,1.2c3.3,2.2,4.9,5,4.7,8.3c-0.2,3.4-1.3,6.6-3.4,9.8
				c-2.4,3.7-5.3,6-8.6,6.9c-3.3,0.9-6.5,0.2-9.7-2L973,869.8z"/>
		</g>
		<polygon fill="#1D1D1B" points="967.4,834 969.7,829.6 982.8,836.6 991.6,820.1 978.5,813.2 980.8,808.8 1012.4,825.7 1010.1,830 
			995.3,822.2 986.6,838.6 1001.4,846.5 999.1,850.8 		"/>
		<path fill="#1D1D1B" d="M986.5,795.5l2.1-5.1l38.1,1.8l-2,4.9l-11.3-0.8l-5.5,13.1l8.4,7.7l-1.9,4.6L986.5,795.5z M1009.1,796.3
			l-16.7-1.1l12.4,11.4L1009.1,796.3z"/>
		<g>
			<path fill="#1D1D1B" d="M994,776.9l4.9-15.8c0.8-2.6,1.9-4.7,3.1-6.1c2.5-2.8,5.7-3.5,9.6-2.3c2.1,0.6,3.6,1.6,4.6,2.8
				c1,1.3,1.7,2.8,2.1,4.5c1-1.2,2-2,3.1-2.4c1.1-0.4,2.6-0.3,4.7,0.2l4.7,1.3c1.3,0.4,2.3,0.6,3,0.6c1.2,0.1,2-0.2,2.6-0.8l0.8,0.2
				l-1.8,5.7c-0.3,0.1-0.8,0.1-1.3,0c-0.5,0-1.4-0.3-2.8-0.6l-5.8-1.5c-2.3-0.6-4-0.2-5.3,1.1c-0.7,0.8-1.3,2.1-1.9,4l-3.3,10.6
				l14.7,4.6l-1.4,4.6L994,776.9z M1014.5,766.5c0.7-2.2,0.8-4,0.3-5.6c-0.5-1.5-1.9-2.7-4.1-3.4c-2.4-0.8-4.4-0.4-5.8,1.1
				c-0.8,0.8-1.4,2-1.9,3.6l-3.5,11.3l11.7,3.6L1014.5,766.5z"/>
		</g>
		<polygon fill="#1D1D1B" points="1003.4,745.8 1008.8,720.2 1013.1,721.1 1008.7,742.1 1019.3,744.3 1023.4,724.9 1027.5,725.8 
			1023.4,745.2 1035.3,747.7 1039.8,726.4 1044,727.2 1038.5,753.2 		"/>
	</g>
	<g>
		<path fill="none" stroke="#1D1D1B" stroke-width="5" stroke-miterlimit="3.864" d="M1062.6,664.9c-0.3-7-0.7-14-1.3-21
			c-0.6-6.9-1.3-13.8-2-20.6c-0.7-6.8-1.6-13.5-2.5-20.1c-0.9-6.6-1.9-13.1-3-19.5c-1.1-6.4-2.4-12.7-3.9-18.9
			c-1.5-6.2-3.2-12.3-5.2-18.4c-2-6-4.2-12-6.6-17.9c-2.4-5.9-5.1-11.7-8-17.6c-2.9-5.9-5.9-11.7-9.1-17.6
			c-3.2-5.9-6.4-11.8-9.8-17.7c-3.4-5.9-6.9-11.9-10.5-17.9c-3.6-6-7.4-11.9-11.3-17.7c-3.9-5.8-8-11.6-12.3-17.1
			c-4.3-5.5-8.7-10.9-13.3-16c-4.6-5.1-9.4-9.9-14.3-14.5c-4.9-4.6-9.9-8.9-14.9-13c-5-4.1-10.1-8.1-15.2-11.9
			c-5.1-3.8-10.1-7.6-15.3-11.3c-5.1-3.7-10.2-7.4-15.5-11c-5.2-3.6-10.5-7.2-16-10.7c-5.5-3.5-11.1-6.9-17-10.1
			c-5.8-3.2-11.9-6.3-18.2-9.1c-6.3-2.8-12.7-5.4-19.3-7.8c-6.6-2.4-13.3-4.5-20.1-6.4c-6.8-1.9-13.6-3.6-20.4-5.3
			c-6.8-1.6-13.5-3.1-20.2-4.5c-6.7-1.4-13.3-2.7-19.9-3.9c-6.6-1.2-13-2.3-19.5-3.2c-6.4-0.9-12.8-1.6-19.2-2.1
			c-6.4-0.5-12.7-0.8-19.1-0.8c-6.3,0-12.7,0.3-19.1,0.8c-6.4,0.5-12.8,1.2-19.2,2.1s-12.9,2-19.5,3.2c-6.6,1.2-13.2,2.5-19.9,3.9
			c-6.7,1.4-13.5,2.9-20.2,4.5c-6.8,1.6-13.6,3.3-20.3,5.3s-13.5,4-20.1,6.4c-6.6,2.4-13,4.9-19.3,7.8c-6.3,2.8-12.3,5.9-18.2,9.1
			c-5.9,3.2-11.5,6.6-17,10.1c-5.5,3.5-10.8,7.1-16,10.7c-5.2,3.6-10.4,7.3-15.5,11c-5.1,3.7-10.2,7.5-15.2,11.3
			c-5.1,3.8-10.1,7.8-15.2,11.9c-5,4.1-10,8.5-14.9,13c-4.9,4.6-9.7,9.4-14.3,14.5c-4.6,5.1-9.1,10.4-13.3,16
			c-4.3,5.5-8.3,11.3-12.3,17.1c-3.9,5.8-7.7,11.8-11.3,17.7c-3.6,6-7.1,11.9-10.5,17.9c-3.4,5.9-6.7,11.8-9.8,17.7
			c-3.2,5.9-6.2,11.7-9,17.6c-2.9,5.8-5.5,11.7-8,17.6c-2.5,5.9-4.7,11.9-6.6,17.9c-2,6-3.7,12.2-5.2,18.4
			c-1.5,6.2-2.8,12.5-3.9,18.9c-1.1,6.4-2.1,12.9-3,19.5c-0.9,6.6-1.7,13.3-2.4,20.1c-0.7,6.8-1.4,13.7-2,20.6c-0.6,7-1,14-1.3,21
			c-0.3,7-0.3,14.1-0.1,21c0.2,7,0.7,13.9,1.4,20.8c0.8,6.8,1.8,13.5,3,20.1c1.3,6.6,2.8,13,4.4,19.3c1.6,6.3,3.4,12.5,5.3,18.6
			c1.8,6.1,3.8,12.1,5.7,18.1c1.9,6,3.9,12,6,18c2.1,6,4.3,12.1,6.7,18.1c2.4,6.1,5,12.1,7.8,18.2c2.8,6.1,6,12.1,9.4,18.1
			c3.4,6,7.1,11.8,11.1,17.6c4,5.8,8.1,11.4,12.5,17c4.3,5.5,8.8,10.9,13.4,16.2c4.5,5.3,9.1,10.5,13.7,15.5
			c4.6,5.1,9.2,10,13.8,14.8c4.6,4.8,9.2,9.5,13.9,14c4.7,4.5,9.4,8.9,14.3,13c4.9,4.2,9.8,8.1,15,11.8c5.1,3.7,10.4,7.2,15.9,10.6
			c5.4,3.3,11.1,6.5,16.8,9.6c5.8,3,11.6,6,17.6,8.9c6,2.9,12.1,5.7,18.4,8.5c6.2,2.8,12.6,5.6,19,8.3c6.4,2.7,13,5.3,19.6,7.7
			c6.6,2.4,13.3,4.7,20,6.6c6.7,2,13.5,3.7,20.2,5.1c6.7,1.4,13.4,2.5,20.1,3.3c6.6,0.8,13.2,1.4,19.7,1.8
			c6.5,0.4,12.9,0.6,19.3,0.7c6.4,0.1,12.7,0.2,19,0.2c6.3,0,12.6,0,19-0.2c6.4-0.1,12.8-0.3,19.3-0.7c6.5-0.4,13.1-1,19.7-1.8
			s13.3-1.9,20.1-3.3c6.7-1.4,13.5-3.1,20.2-5.1c6.7-2,13.4-4.2,20-6.6c6.6-2.4,13.1-5,19.6-7.7c6.4-2.7,12.8-5.5,19-8.3
			c6.2-2.8,12.4-5.6,18.4-8.5c6-2.9,11.9-5.8,17.6-8.9c5.7-3.1,11.3-6.2,16.8-9.6c5.5-3.3,10.7-6.8,15.9-10.6
			c5.1-3.7,10.1-7.7,15-11.8c4.9-4.2,9.6-8.5,14.3-13c4.7-4.5,9.3-9.2,13.9-14c4.6-4.8,9.2-9.8,13.8-14.8
			c4.6-5.1,9.2-10.2,13.7-15.5c4.5-5.3,9-10.7,13.4-16.2c4.3-5.5,8.5-11.2,12.5-17c3.9-5.8,7.6-11.7,11.1-17.6
			c3.4-6,6.5-12,9.4-18.1c2.8-6.1,5.4-12.1,7.8-18.2c2.4-6,4.6-12.1,6.7-18.1c2.1-6,4.1-12,6-18c1.9-6,3.8-12,5.7-18.1
			c1.8-6.1,3.6-12.3,5.3-18.6c1.6-6.3,3.1-12.7,4.4-19.3c1.3-6.6,2.3-13.3,3-20.1s1.2-13.8,1.4-20.8
			C1062.9,679,1062.8,672,1062.6,664.9z M1075.1,664.9c-0.5-7.6-1.3-15.2-2.1-22.6c-0.8-7.4-1.6-14.8-2.5-21.9
			c-0.8-7.2-1.6-14.2-2.4-21c-0.8-6.8-1.6-13.5-2.5-20c-0.9-6.5-1.9-12.8-3.3-19c-1.3-6.2-2.9-12.2-4.8-18.2
			c-1.9-5.9-4.2-11.7-6.8-17.5c-2.6-5.8-5.5-11.5-8.5-17.3c-3.1-5.8-6.4-11.6-9.8-17.6c-3.4-6-6.9-12.1-10.4-18.4
			c-3.5-6.3-7.2-12.7-10.9-19.2c-3.7-6.5-7.6-13.1-11.6-19.5c-4-6.5-8.3-12.8-12.7-18.9c-4.5-6.1-9.2-11.8-14.1-17.2
			c-4.9-5.4-10-10.3-15.2-14.9c-5.2-4.6-10.5-8.8-15.8-12.7c-5.3-3.9-10.5-7.6-15.6-11.3c-5.1-3.6-10.2-7.2-15.1-10.8
			c-5-3.6-9.9-7.3-15-11.1c-5-3.8-10.2-7.6-15.5-11.3c-5.4-3.8-11-7.5-17-11c-6-3.5-12.3-6.9-18.9-9.9c-6.6-3-13.6-5.7-20.7-8.1
			c-7.1-2.4-14.5-4.4-21.9-6.3c-7.4-1.8-14.8-3.5-22.1-5c-7.3-1.5-14.6-3-21.6-4.4c-7.1-1.4-14-2.9-20.7-4.2
			c-6.7-1.4-13.3-2.7-19.8-3.8c-6.5-1.1-12.8-2.1-19.1-2.8c-6.3-0.7-12.5-1-18.8-1c-6.2,0-12.5,0.4-18.8,1
			c-6.3,0.7-12.6,1.6-19.1,2.8c-6.5,1.1-13,2.5-19.8,3.8c-6.7,1.4-13.6,2.8-20.7,4.2c-7.1,1.4-14.3,2.9-21.6,4.4
			c-7.3,1.5-14.7,3.2-22.1,5c-7.4,1.9-14.7,3.9-21.9,6.3c-7.1,2.4-14.1,5.1-20.7,8.1c-6.6,3-12.9,6.4-18.9,9.9
			c-6,3.5-11.6,7.3-17,11c-5.4,3.8-10.5,7.6-15.5,11.3c-5,3.8-10,7.4-15,11.1s-10,7.2-15.1,10.8c-5.1,3.6-10.3,7.3-15.6,11.3
			c-5.3,4-10.6,8.1-15.8,12.7c-5.2,4.6-10.3,9.6-15.2,14.9c-4.9,5.4-9.6,11.1-14.1,17.2c-4.5,6.1-8.7,12.4-12.8,18.9
			c-4,6.4-7.9,13-11.6,19.5c-3.7,6.5-7.4,12.9-10.9,19.2c-3.6,6.3-7,12.4-10.4,18.4c-3.4,6-6.7,11.8-9.8,17.6
			c-3.1,5.8-6,11.5-8.5,17.3c-2.6,5.8-4.8,11.6-6.8,17.5c-1.9,5.9-3.5,12-4.8,18.2c-1.3,6.2-2.4,12.5-3.3,19
			c-0.9,6.5-1.7,13.2-2.5,20c-0.8,6.8-1.6,13.8-2.4,21c-0.8,7.2-1.7,14.5-2.4,21.9c-0.8,7.4-1.5,15-2.1,22.6
			c-0.5,7.6-0.8,15.2-0.8,22.7c0.1,7.5,0.5,15,1.3,22.2c0.8,7.2,2,14.3,3.5,21c1.5,6.8,3.3,13.3,5.3,19.6c1.9,6.3,4,12.3,6,18.3
			c2,6,4,11.8,5.9,17.6c1.9,5.9,3.7,11.8,5.6,17.7c1.9,6,3.8,12.1,5.9,18.3c2.1,6.2,4.5,12.5,7.2,18.9c2.7,6.4,5.9,12.8,9.5,19.1
			c3.6,6.3,7.6,12.6,12,18.7c4.4,6.1,9.1,12.1,14,18c4.9,5.8,9.9,11.5,15,17.1c5,5.6,10,11,14.9,16.3c4.9,5.3,9.6,10.5,14.3,15.6
			c4.6,5.1,9.2,10,13.8,14.7c4.5,4.7,9.1,9.2,13.8,13.5c4.7,4.2,9.5,8.2,14.6,11.8c5,3.7,10.3,7,15.8,10.2c5.5,3.2,11.2,6.1,17.1,9
			c5.9,2.9,12,5.7,18.3,8.5c6.3,2.8,12.7,5.8,19.2,8.7c6.6,3,13.3,6.1,20.1,9.1c6.8,3.1,13.8,6.1,20.9,8.9
			c7.1,2.8,14.2,5.5,21.4,7.8c7.2,2.3,14.4,4.2,21.5,5.6c7.1,1.5,14.2,2.5,21.1,3.1s13.6,0.9,20.2,1c6.6,0.1,13,0,19.2-0.1
			c6.3-0.1,12.4-0.2,18.6-0.2c6.2,0,12.3,0.1,18.6,0.2c6.3,0.1,12.7,0.2,19.2,0.1s13.3-0.4,20.2-1c6.9-0.7,14-1.7,21.1-3.1
			c7.1-1.5,14.3-3.3,21.5-5.6c7.2-2.3,14.3-4.9,21.4-7.8c7.1-2.8,14-5.9,20.9-8.9c6.8-3.1,13.5-6.1,20.1-9.1c6.6-3,13-5.9,19.2-8.7
			c6.3-2.9,12.4-5.7,18.3-8.5c5.9-2.9,11.6-5.8,17.1-9c5.5-3.2,10.7-6.5,15.8-10.2c5-3.7,9.9-7.6,14.6-11.8
			c4.7-4.2,9.3-8.8,13.8-13.5c4.6-4.7,9.1-9.7,13.8-14.7c4.6-5.1,9.4-10.3,14.3-15.6c4.9-5.3,9.9-10.7,14.9-16.3
			c5-5.6,10.1-11.2,14.9-17.1c4.9-5.8,9.6-11.8,14-18c4.4-6.1,8.4-12.4,12-18.7c3.6-6.3,6.7-12.7,9.5-19.1
			c2.8-6.4,5.1-12.7,7.2-18.9c2.1-6.2,4-12.3,5.9-18.3s3.7-11.9,5.6-17.7c1.9-5.9,3.9-11.7,5.9-17.6c2-6,4.1-12,6-18.3
			c1.9-6.3,3.7-12.8,5.3-19.6c1.5-6.8,2.7-13.8,3.6-21c0.8-7.2,1.3-14.7,1.3-22.2C1075.9,680.1,1075.6,672.5,1075.1,664.9z
			 M1087.6,664.9c-0.8-8.2-1.8-16.3-2.8-24.2c-1-7.9-2.1-15.7-2.9-23.2c-0.9-7.5-1.6-14.8-2.3-21.9c-0.7-7.1-1.3-13.9-1.9-20.5
			c-0.7-6.6-1.5-12.9-2.6-19.1c-1.1-6.2-2.6-12.1-4.5-17.9c-1.9-5.8-4.2-11.5-6.9-17.1c-2.7-5.7-5.8-11.3-9.1-17
			c-3.3-5.7-6.8-11.6-10.5-17.7s-7.3-12.5-11-19.1c-3.7-6.6-7.5-13.5-11.3-20.5c-3.8-7-7.8-14.2-11.9-21.3
			c-4.2-7.1-8.5-14-13.2-20.6c-4.7-6.6-9.6-12.8-14.9-18.4c-5.2-5.7-10.7-10.8-16.2-15.4c-5.5-4.6-11.1-8.7-16.6-12.4
			c-5.5-3.8-10.8-7.2-16-10.6c-5.2-3.4-10.2-6.8-15-10.3c-4.9-3.5-9.6-7.2-14.5-11.1c-4.8-3.9-9.8-7.9-15.1-12
			c-5.3-4-10.9-8.1-16.9-11.9c-6.1-3.8-12.6-7.4-19.6-10.7c-7-3.2-14.4-6-22.1-8.4c-7.7-2.4-15.7-4.4-23.7-6.2
			c-8-1.8-16-3.3-23.9-4.8c-7.9-1.5-15.6-2.9-23-4.4c-7.4-1.5-14.6-3-21.5-4.6c-6.9-1.5-13.6-3.1-20.1-4.5c-6.5-1.4-12.8-2.6-19-3.4
			c-6.2-0.8-12.3-1.3-18.4-1.3s-12.2,0.4-18.4,1.3c-6.2,0.8-12.5,2-19,3.4c-6.5,1.4-13.1,2.9-20.1,4.5c-6.9,1.5-14.1,3.1-21.5,4.6
			c-7.4,1.5-15.1,2.9-23,4.4c-7.9,1.5-15.9,3-23.9,4.8c-8,1.8-16,3.8-23.7,6.2c-7.7,2.4-15.1,5.2-22.1,8.4
			c-7,3.2-13.5,6.8-19.6,10.7c-6.1,3.8-11.7,7.9-16.9,11.9c-5.3,4.1-10.2,8.1-15.1,12c-4.8,3.9-9.6,7.6-14.5,11.1
			c-4.9,3.5-9.9,6.9-15,10.3c-5.2,3.4-10.5,6.9-16,10.6c-5.5,3.8-11.1,7.8-16.6,12.4c-5.5,4.6-11,9.7-16.2,15.4
			c-5.2,5.7-10.2,11.8-14.9,18.4c-4.7,6.6-9.1,13.5-13.2,20.6c-4.2,7.1-8.1,14.2-11.9,21.3c-3.8,7-7.6,13.9-11.3,20.5
			c-3.7,6.6-7.4,13-11,19.1c-3.6,6.1-7.2,11.9-10.5,17.7c-3.3,5.7-6.4,11.4-9.1,17c-2.7,5.6-5,11.3-6.9,17.1
			c-1.9,5.8-3.3,11.8-4.5,17.9c-1.1,6.2-1.9,12.5-2.6,19.1c-0.7,6.6-1.3,13.4-1.9,20.5c-0.7,7.1-1.4,14.4-2.3,21.9
			c-0.9,7.5-1.9,15.3-2.9,23.2c-1,7.9-2,16.1-2.8,24.2s-1.3,16.4-1.4,24.4c-0.1,8.1,0.3,16,1.2,23.7c0.9,7.6,2.3,15,4.1,21.9
			c1.8,7,3.9,13.5,6.1,19.8c2.2,6.3,4.6,12.2,6.7,18c2.2,5.8,4.2,11.5,6.1,17.2c1.9,5.7,3.5,11.5,5.2,17.5c1.6,6,3.3,12.2,5.1,18.5
			c1.9,6.4,4,12.9,6.7,19.6c2.7,6.7,5.8,13.4,9.6,20.1c3.8,6.7,8.1,13.3,12.9,19.8c4.8,6.5,10.1,12.8,15.5,18.9
			c5.4,6.1,11,12.1,16.5,17.9c5.5,5.8,10.9,11.5,16,17.1c5.1,5.6,10,11,14.7,16.4c4.7,5.3,9.2,10.5,13.6,15.4
			c4.4,4.9,8.8,9.6,13.4,13.9c4.5,4.3,9.2,8.3,14.2,11.9c4.9,3.6,10.2,6.8,15.7,9.8c5.5,3,11.3,5.7,17.4,8.4
			c6,2.7,12.4,5.4,18.9,8.2c6.5,2.8,13.2,5.8,20.1,9c6.9,3.2,14,6.5,21.2,10c7.2,3.4,14.6,6.9,22.1,10.2c7.5,3.3,15.1,6.3,22.8,8.9
			c7.7,2.6,15.3,4.7,22.9,6.2c7.5,1.5,14.9,2.4,22.1,2.9c7.2,0.5,14.1,0.5,20.7,0.3c6.6-0.2,13-0.6,19.2-0.8
			c6.2-0.3,12.2-0.5,18.2-0.5c6,0,12,0.2,18.2,0.5c6.2,0.3,12.6,0.6,19.2,0.8c6.6,0.2,13.6,0.2,20.7-0.3c7.2-0.5,14.6-1.4,22.1-2.9
			c7.5-1.5,15.2-3.6,22.9-6.2c7.7-2.6,15.3-5.6,22.8-8.9c7.5-3.3,14.9-6.8,22.2-10.2c7.2-3.4,14.3-6.8,21.2-10
			c6.9-3.2,13.6-6.1,20.1-9s12.8-5.5,18.9-8.2c6.1-2.7,11.8-5.4,17.4-8.4c5.5-3,10.7-6.2,15.7-9.8c4.9-3.6,9.6-7.6,14.2-11.9
			c4.5-4.3,8.9-9,13.4-13.9c4.4-4.9,8.9-10.1,13.6-15.4c4.7-5.3,9.6-10.8,14.7-16.4c5.2-5.6,10.5-11.3,16-17.1
			c5.5-5.8,11.1-11.8,16.5-17.9c5.4-6.1,10.7-12.5,15.5-18.9c4.8-6.5,9.2-13.1,12.9-19.8c3.8-6.7,6.9-13.5,9.6-20.1
			c2.7-6.7,4.8-13.3,6.7-19.6c1.9-6.4,3.5-12.5,5.2-18.5c1.6-6,3.3-11.8,5.2-17.5c1.9-5.7,3.9-11.4,6.1-17.2
			c2.2-5.8,4.5-11.8,6.7-18c2.2-6.3,4.4-12.8,6.1-19.8c1.8-7,3.2-14.3,4.1-21.9c0.9-7.6,1.3-15.6,1.2-23.7
			C1088.9,681.3,1088.3,673.1,1087.6,664.9z M1100.1,664.9c-1.1-8.7-2.4-17.4-3.6-25.8c-1.3-8.4-2.4-16.6-3.4-24.5
			c-1-7.9-1.7-15.5-2.2-22.8c-0.5-7.3-0.9-14.3-1.4-20.9c-0.5-6.7-1-13.1-2-19.2c-1-6.1-2.3-12-4.1-17.7c-1.9-5.7-4.2-11.3-7.1-16.8
			c-2.8-5.5-6.1-11-9.7-16.7c-3.5-5.7-7.3-11.5-11.2-17.8c-3.9-6.2-7.7-12.8-11.6-19.7c-3.9-6.9-7.7-14.3-11.7-21.8
			c-3.9-7.6-8-15.3-12.3-23c-4.3-7.7-8.8-15.2-13.7-22.3c-4.9-7.1-10.1-13.7-15.6-19.7c-5.5-5.9-11.3-11.2-17.1-15.8
			c-5.8-4.6-11.7-8.6-17.4-12.1c-5.7-3.6-11.2-6.8-16.5-10c-5.2-3.2-10.2-6.4-14.9-9.8c-4.8-3.5-9.3-7.1-14-11.1
			c-4.7-4-9.4-8.3-14.6-12.6c-5.2-4.3-10.7-8.7-16.9-12.8c-6.2-4.1-13-8-20.3-11.4c-7.4-3.4-15.3-6.3-23.5-8.8
			c-8.3-2.4-16.9-4.4-25.5-6.1c-8.6-1.7-17.3-3.1-25.7-4.5c-8.4-1.4-16.6-2.8-24.4-4.4c-7.8-1.5-15.3-3.2-22.3-4.9
			c-7.1-1.7-13.9-3.5-20.4-5.1c-6.5-1.6-12.8-3.1-18.9-4c-6.1-1-12.1-1.5-18.1-1.5c-6,0-12,0.6-18.1,1.5c-6.1,1-12.4,2.4-18.9,4
			c-6.5,1.6-13.3,3.4-20.4,5.1c-7.1,1.7-14.5,3.4-22.3,4.9c-7.8,1.5-16,2.9-24.4,4.4c-8.4,1.4-17,2.8-25.7,4.5
			c-8.6,1.7-17.2,3.7-25.5,6.1c-8.3,2.5-16.2,5.4-23.5,8.8c-7.4,3.4-14.1,7.3-20.3,11.4c-6.2,4.1-11.8,8.5-16.9,12.8
			c-5.2,4.3-9.9,8.6-14.6,12.6c-4.7,4-9.2,7.7-14,11.1c-4.7,3.5-9.7,6.6-14.9,9.8c-5.2,3.2-10.7,6.4-16.5,10
			c-5.7,3.6-11.6,7.5-17.4,12.1c-5.8,4.6-11.6,9.8-17.1,15.8c-5.5,5.9-10.7,12.6-15.6,19.7c-4.9,7.1-9.4,14.7-13.7,22.3
			c-4.3,7.7-8.3,15.4-12.3,23c-3.9,7.6-7.8,14.9-11.7,21.8c-3.9,7-7.8,13.5-11.6,19.7c-3.8,6.2-7.6,12.1-11.2,17.8
			c-3.5,5.7-6.8,11.2-9.7,16.7c-2.8,5.5-5.2,11.1-7.1,16.8c-1.9,5.7-3.2,11.6-4.1,17.7c-0.9,6.1-1.5,12.5-2,19.2
			c-0.5,6.7-0.9,13.6-1.4,20.9c-0.5,7.3-1.3,14.9-2.2,22.8c-0.9,7.9-2.1,16.1-3.4,24.5c-1.3,8.4-2.6,17.1-3.6,25.8
			c-1.1,8.7-1.8,17.5-2,26.1c-0.2,8.6,0.1,17,1.1,25.1c1,8,2.6,15.7,4.6,22.8c2,7.2,4.5,13.8,7,20c2.5,6.2,5.1,12.1,7.5,17.7
			c2.4,5.7,4.5,11.1,6.3,16.7s3.3,11.3,4.7,17.2c1.4,6,2.8,12.2,4.4,18.7c1.6,6.5,3.6,13.4,6.1,20.3c2.6,7,5.8,14.1,9.7,21.2
			c4,7.1,8.6,14.1,13.9,20.9c5.2,6.8,11,13.5,17,19.9c6,6.4,12.1,12.7,18.1,18.8c6,6.1,11.8,12,17.2,17.9
			c5.4,5.8,10.5,11.6,15.2,17.1c4.7,5.6,9.1,11,13.4,16.1c4.3,5.1,8.5,10,12.9,14.4c4.4,4.4,8.9,8.4,13.8,11.9
			c4.9,3.5,10,6.6,15.6,9.4c5.5,2.8,11.4,5.3,17.6,7.8c6.2,2.5,12.7,5,19.5,7.8c6.8,2.8,13.8,5.8,21,9.2c7.2,3.3,14.7,7,22.3,10.8
			c7.6,3.8,15.5,7.7,23.4,11.4c8,3.7,16.1,7.2,24.2,10c8.1,2.9,16.3,5.1,24.2,6.7c7.9,1.6,15.7,2.4,23.1,2.7
			c7.4,0.3,14.5,0,21.2-0.4c6.7-0.5,13.1-1.1,19.2-1.6c6.1-0.5,12-0.8,17.8-0.8s11.7,0.3,17.8,0.8c6.1,0.5,12.5,1.1,19.2,1.6
			c6.7,0.5,13.8,0.7,21.2,0.4c7.4-0.3,15.2-1.1,23.1-2.7c7.9-1.6,16.1-3.8,24.2-6.7c8.1-2.9,16.2-6.3,24.2-10
			c8-3.7,15.8-7.6,23.4-11.4c7.6-3.8,15.1-7.5,22.3-10.8c7.2-3.4,14.2-6.4,21-9.2c6.8-2.8,13.3-5.3,19.5-7.8
			c6.2-2.5,12.1-5,17.6-7.8c5.5-2.8,10.7-5.9,15.6-9.4c4.9-3.5,9.4-7.5,13.8-11.9c4.4-4.4,8.6-9.2,12.9-14.4
			c4.3-5.1,8.7-10.5,13.4-16.1c4.7-5.6,9.8-11.3,15.2-17.1c5.4-5.8,11.2-11.8,17.2-17.9c6-6.1,12.1-12.3,18.1-18.8
			c6-6.5,11.8-13.1,17-19.9c5.2-6.8,9.9-13.9,13.9-20.9c3.9-7.1,7.2-14.2,9.7-21.2c2.6-7,4.5-13.8,6.1-20.3c1.6-6.5,3-12.8,4.4-18.7
			c1.4-6,2.9-11.6,4.7-17.2c1.8-5.6,3.9-11.1,6.3-16.7c2.4-5.7,4.9-11.5,7.5-17.7c2.5-6.3,5-12.9,7-20c2-7.2,3.6-14.8,4.6-22.8
			c1-8,1.3-16.5,1.1-25.1C1101.9,682.4,1101.1,673.7,1100.1,664.9z M1112.6,664.9c-1.3-9.3-2.9-18.5-4.4-27.4
			c-1.5-8.9-2.8-17.6-3.9-25.9c-1-8.3-1.7-16.2-2.1-23.7c-0.4-7.5-0.6-14.6-0.9-21.4c-0.3-6.8-0.6-13.2-1.4-19.3
			c-0.8-6.1-2-11.9-3.8-17.5c-1.8-5.6-4.3-11-7.2-16.4c-3-5.4-6.5-10.8-10.2-16.4c-3.8-5.6-7.8-11.5-11.9-17.8
			c-4.1-6.3-8.2-13.1-12.2-20.4c-4-7.3-8-15.1-12.1-23.2c-4-8.1-8.2-16.5-12.6-24.8c-4.4-8.3-9.1-16.5-14.2-24.1
			c-5.1-7.6-10.6-14.7-16.4-20.9c-5.8-6.2-11.9-11.6-18.1-16.2c-6.2-4.6-12.4-8.4-18.3-11.8c-5.9-3.4-11.6-6.3-16.9-9.3
			c-5.3-3-10.2-6-14.8-9.3c-4.6-3.4-9-7.1-13.5-11.2c-4.5-4.1-9-8.6-14.1-13.2c-5.1-4.6-10.6-9.3-16.9-13.7
			c-6.3-4.4-13.3-8.6-21-12.2c-7.7-3.6-16.1-6.7-24.9-9.1c-8.8-2.5-18-4.4-27.3-6c-9.2-1.6-18.5-3-27.5-4.3
			c-9-1.4-17.6-2.7-25.8-4.3c-8.2-1.6-15.9-3.4-23.2-5.3c-7.3-1.9-14.1-3.9-20.6-5.8c-6.5-1.9-12.7-3.5-18.8-4.7
			c-6-1.2-11.9-1.8-17.8-1.8c-5.9,0-11.8,0.6-17.8,1.8c-6,1.2-12.3,2.8-18.8,4.7c-6.5,1.8-13.4,3.9-20.6,5.8
			c-7.3,1.9-15,3.7-23.2,5.3c-8.2,1.6-16.8,3-25.8,4.3c-8.9,1.3-18.2,2.7-27.4,4.3c-9.2,1.6-18.5,3.6-27.3,6
			c-8.8,2.5-17.2,5.5-24.9,9.1c-7.7,3.6-14.7,7.7-21,12.2c-6.3,4.4-11.8,9.1-16.9,13.7c-5,4.6-9.6,9.1-14.1,13.2
			c-4.5,4.1-8.8,7.8-13.5,11.2c-4.6,3.4-9.5,6.4-14.8,9.3c-5.3,3-11,5.9-16.9,9.3c-5.9,3.4-12.1,7.2-18.3,11.8
			c-6.2,4.6-12.3,10-18.1,16.2c-5.8,6.2-11.3,13.3-16.4,20.9c-5.1,7.6-9.8,15.8-14.2,24.1c-4.4,8.3-8.5,16.7-12.6,24.8
			c-4,8.1-8,15.9-12.1,23.2c-4,7.3-8.1,14.1-12.2,20.4c-4.1,6.3-8.1,12.2-11.9,17.8c-3.8,5.6-7.3,11-10.2,16.4
			c-3,5.4-5.4,10.8-7.2,16.4c-1.8,5.6-3,11.4-3.8,17.5c-0.8,6.1-1.1,12.5-1.4,19.3c-0.3,6.8-0.4,13.9-0.9,21.4
			c-0.4,7.5-1.1,15.4-2.1,23.7c-1,8.3-2.4,16.9-3.9,25.9c-1.5,8.9-3.1,18.2-4.4,27.4s-2.3,18.7-2.7,27.8c-0.4,9.2-0.1,18.1,1,26.5
			c1,8.5,2.8,16.4,5.1,23.8c2.3,7.3,5,14.1,7.9,20.3c2.8,6.2,5.7,12,8.2,17.5c2.5,5.5,4.7,10.8,6.5,16.3c1.8,5.4,3.1,11,4.3,17
			c1.2,5.9,2.3,12.3,3.6,18.9c1.4,6.7,3.1,13.8,5.6,21.1c2.5,7.3,5.7,14.8,9.8,22.2c4.1,7.4,9.1,14.8,14.8,22
			c5.7,7.2,12,14.2,18.5,20.9c6.5,6.8,13.2,13.3,19.7,19.6c6.5,6.4,12.6,12.6,18.3,18.6s10.9,12.1,15.7,17.9
			c4.8,5.8,9.1,11.5,13.3,16.8c4.2,5.3,8.2,10.3,12.4,14.8c4.2,4.5,8.6,8.5,13.4,11.9c4.8,3.5,9.9,6.4,15.5,9
			c5.6,2.6,11.6,4.9,17.9,7.3c6.4,2.3,13.1,4.7,20.1,7.4c7,2.7,14.3,5.8,21.9,9.3c7.5,3.5,15.4,7.5,23.4,11.7
			c8,4.2,16.3,8.5,24.7,12.7c8.4,4.1,17,8,25.6,11.1c8.6,3.2,17.2,5.6,25.5,7.3c8.4,1.6,16.5,2.4,24.2,2.5
			c7.7,0.1,14.9-0.4,21.7-1.2c6.8-0.8,13.1-1.7,19.1-2.4s11.7-1.1,17.5-1.1c5.7,0,11.4,0.4,17.5,1.1c6,0.7,12.3,1.6,19.1,2.4
			c6.8,0.8,14,1.3,21.7,1.2c7.7-0.1,15.8-0.9,24.2-2.5c8.3-1.6,16.9-4.1,25.5-7.3c8.6-3.2,17.2-7,25.6-11.1
			c8.4-4.1,16.7-8.5,24.7-12.7c8-4.2,15.8-8.1,23.4-11.7c7.5-3.5,14.9-6.6,21.9-9.3c7-2.7,13.7-5.1,20.1-7.4
			c6.4-2.3,12.3-4.6,17.9-7.3c5.6-2.6,10.7-5.6,15.5-9c4.8-3.5,9.2-7.4,13.4-11.9c4.2-4.5,8.3-9.5,12.4-14.8
			c4.2-5.3,8.5-11,13.3-16.8c4.8-5.8,10-11.8,15.6-17.9s11.9-12.3,18.3-18.6c6.5-6.4,13.2-12.9,19.7-19.6
			c6.5-6.8,12.8-13.7,18.5-20.9c5.7-7.2,10.7-14.6,14.8-22c4.1-7.4,7.4-14.9,9.8-22.2s4.2-14.4,5.6-21.1c1.4-6.7,2.4-13,3.6-18.9
			c1.2-5.9,2.5-11.5,4.3-17c1.8-5.4,3.9-10.8,6.5-16.3c2.5-5.5,5.4-11.2,8.2-17.5c2.8-6.2,5.6-13,7.8-20.3
			c2.3-7.3,4.1-15.3,5.1-23.8c1-8.4,1.3-17.4,1-26.5C1114.9,683.6,1113.9,674.2,1112.6,664.9z M1150.1,664.9
			c-2.1-11-4.5-21.9-6.7-32.3c-2.2-10.4-4-20.4-5.3-29.8c-1.2-9.4-1.8-18.2-1.9-26.4c-0.1-8.2,0.3-15.8,0.7-22.8
			c0.4-7,0.8-13.5,0.5-19.6c-0.2-6-1.1-11.6-2.8-16.9c-1.7-5.3-4.3-10.3-7.7-15.3c-3.4-5-7.5-10.1-11.9-15.5
			c-4.5-5.5-9.3-11.4-14-18c-4.8-6.7-9.5-14.1-14-22.4c-4.5-8.3-8.9-17.5-13.2-27.2c-4.4-9.7-8.8-19.9-13.6-30.1
			c-4.8-10.1-9.9-20.1-15.6-29.3c-5.7-9.2-12-17.5-18.7-24.6c-6.7-7.1-13.8-12.9-20.9-17.5c-7.1-4.6-14.2-8.1-20.8-10.9
			c-6.6-2.8-12.8-5-18.2-7.4c-5.4-2.3-10.2-4.8-14.4-7.9c-4.3-3.1-8.1-6.8-11.9-11.3c-3.9-4.5-7.9-9.6-12.6-15
			c-4.7-5.4-10.2-11.1-16.8-16.5c-6.6-5.3-14.3-10.3-23.1-14.5c-8.8-4.2-18.7-7.6-29.1-10.2c-10.5-2.6-21.6-4.4-32.7-5.8
			c-11.1-1.4-22.2-2.4-32.8-3.6c-10.6-1.2-20.6-2.5-29.9-4.2c-9.3-1.7-17.9-3.9-25.7-6.3c-7.8-2.5-14.9-5.2-21.5-7.7
			c-6.6-2.6-12.6-4.9-18.5-6.5c-5.8-1.7-11.3-2.6-16.9-2.6c-5.6,0-11.1,0.9-16.9,2.6c-5.8,1.6-11.9,4-18.5,6.5
			c-6.6,2.6-13.7,5.3-21.5,7.7c-7.8,2.5-16.4,4.6-25.7,6.3c-9.3,1.7-19.4,3-30,4.2c-10.6,1.2-21.7,2.2-32.8,3.6
			c-11.1,1.4-22.2,3.2-32.7,5.8c-10.5,2.6-20.4,6-29.1,10.2c-8.8,4.2-16.5,9.2-23.1,14.5c-6.6,5.3-12.1,11-16.8,16.5
			c-4.7,5.4-8.7,10.6-12.6,15c-3.9,4.4-7.7,8.2-11.9,11.3c-4.3,3.1-9,5.6-14.4,7.9c-5.4,2.3-11.6,4.5-18.2,7.4
			c-6.6,2.8-13.7,6.3-20.8,10.9c-7.1,4.6-14.2,10.4-20.9,17.5c-6.7,7.1-13,15.4-18.7,24.6c-5.7,9.2-10.9,19.2-15.6,29.3
			c-4.8,10.1-9.2,20.4-13.5,30.1c-4.4,9.7-8.7,18.9-13.2,27.2c-4.5,8.3-9.2,15.8-14,22.4c-4.7,6.7-9.5,12.6-14,18
			c-4.5,5.5-8.6,10.5-11.9,15.5c-3.4,5-6,10-7.7,15.3c-1.7,5.3-2.5,10.8-2.8,16.9c-0.2,6,0.1,12.5,0.5,19.6c0.4,7,0.8,14.6,0.7,22.8
			c-0.1,8.2-0.7,17-1.9,26.4c-1.2,9.4-3.1,19.4-5.3,29.8c-2.2,10.4-4.6,21.3-6.7,32.3s-3.8,22.1-4.6,32.9
			c-0.8,10.8-0.6,21.2,0.7,30.9c1.3,9.6,3.6,18.5,6.6,26.5c3,7.9,6.8,14.9,10.5,21.1c3.7,6.2,7.4,11.6,10.4,16.6
			c3,5.1,5.4,9.8,7.1,14.9c1.6,5,2.5,10.3,3,16.2c0.5,5.9,0.7,12.4,1.4,19.6c0.6,7.2,1.7,15,3.9,23.2c2.2,8.2,5.5,16.8,10.2,25.3
			c4.7,8.5,10.6,17.1,17.6,25.3c7,8.3,14.9,16.2,23,23.9c8.2,7.7,16.5,15,24.4,22.2c7.9,7.2,15.3,14.1,21.8,21
			c6.5,6.9,12.1,13.6,17,20.2c4.9,6.6,9,13,12.8,18.9c3.8,5.9,7.3,11.4,11.1,16.1c3.7,4.7,7.7,8.8,12.2,12c4.5,3.3,9.5,5.8,15.2,7.8
			c5.7,2.1,11.9,3.8,18.8,5.5c6.8,1.8,14.2,3.8,21.9,6.4c7.8,2.6,15.9,5.9,24.5,10c8.5,4.1,17.5,8.9,26.7,14.2
			c9.2,5.3,18.8,11,28.6,16.4c9.8,5.4,19.9,10.5,29.9,14.5c10,4.1,20,7.1,29.6,8.9c9.6,1.8,18.8,2.3,27.2,1.9
			c8.5-0.4,16.3-1.8,23.3-3.4c7-1.6,13.3-3.4,19-4.8c5.8-1.3,11-2.1,16.3-2.1c5.3,0,10.5,0.8,16.3,2.1c5.8,1.3,12,3.1,19,4.8
			c7,1.6,14.8,3,23.3,3.4c8.5,0.4,17.6-0.1,27.2-1.9c9.6-1.8,19.5-4.9,29.5-8.9c10-4.1,20.1-9.1,29.9-14.5
			c9.8-5.4,19.4-11.1,28.6-16.4c9.2-5.3,18.2-10.1,26.7-14.2c8.5-4.1,16.7-7.3,24.5-10c7.8-2.6,15.1-4.6,21.9-6.4
			c6.8-1.8,13.1-3.5,18.8-5.5s10.7-4.6,15.2-7.8c4.5-3.3,8.4-7.3,12.2-12c3.7-4.8,7.3-10.2,11.1-16.1c3.8-5.9,8-12.3,12.8-18.9
			c4.9-6.6,10.5-13.3,17-20.2c6.5-6.9,13.9-13.8,21.8-21c7.9-7.2,16.3-14.5,24.4-22.2c8.2-7.7,16.1-15.6,23-23.9
			c7-8.3,12.9-16.8,17.6-25.3c4.7-8.6,8-17.1,10.2-25.3c2.2-8.2,3.3-16,3.9-23.2c0.6-7.2,0.8-13.7,1.4-19.6c0.5-5.9,1.4-11.2,3-16.2
			c1.6-5,4-9.8,7.1-14.9s6.7-10.5,10.4-16.6c3.7-6.2,7.4-13.1,10.4-21.1c3-7.9,5.4-16.8,6.6-26.5c1.3-9.7,1.4-20.1,0.7-30.9
			C1153.9,687,1152.1,675.9,1150.1,664.9z M1125.1,664.9c-1.6-9.9-3.5-19.6-5.2-29.1c-1.7-9.4-3.2-18.5-4.3-27.2
			c-1.1-8.7-1.7-16.8-2.1-24.6c-0.3-7.7-0.3-15-0.3-21.9c0-6.9-0.1-13.3-0.7-19.4c-0.6-6.1-1.7-11.8-3.5-17.3
			c-1.8-5.5-4.3-10.8-7.4-16c-3.1-5.3-6.8-10.5-10.8-16.1c-4-5.6-8.3-11.5-12.6-17.9c-4.3-6.4-8.6-13.5-12.8-21.1
			c-4.2-7.6-8.3-15.9-12.5-24.5c-4.2-8.6-8.4-17.6-12.9-26.5c-4.5-8.9-9.4-17.7-14.7-25.8c-5.3-8.1-11-15.6-17.2-22.1
			c-6.1-6.5-12.6-12-19-16.6c-6.5-4.6-13-8.3-19.1-11.5c-6.2-3.2-12-5.9-17.3-8.7c-5.3-2.8-10.2-5.6-14.7-8.9
			c-4.5-3.3-8.7-7-13-11.2c-4.3-4.2-8.6-8.9-13.6-13.8c-4.9-4.9-10.5-9.9-16.9-14.7c-6.4-4.7-13.6-9.2-21.7-12.9
			c-8.1-3.8-17-6.9-26.3-9.5c-9.4-2.5-19.2-4.4-29.1-6c-9.9-1.5-19.7-2.8-29.2-4.1c-9.5-1.3-18.6-2.6-27.2-4.3
			c-8.6-1.6-16.6-3.6-24-5.6c-7.5-2.1-14.4-4.3-20.9-6.4c-6.5-2.1-12.7-4-18.7-5.3c-6-1.3-11.7-2.1-17.5-2.1
			c-5.8,0-11.5,0.7-17.5,2.1c-6,1.3-12.1,3.2-18.7,5.3c-6.5,2.1-13.5,4.3-20.9,6.4c-7.5,2.1-15.4,4-24,5.6c-8.5,1.6-17.7,3-27.2,4.3
			c-9.5,1.3-19.4,2.5-29.2,4.1c-9.9,1.5-19.7,3.4-29.1,6c-9.4,2.5-18.3,5.7-26.3,9.5c-8.1,3.8-15.3,8.2-21.7,12.9
			c-6.4,4.7-11.9,9.8-16.9,14.7c-4.9,4.9-9.3,9.6-13.6,13.8c-4.3,4.2-8.4,8-12.9,11.2c-4.5,3.3-9.3,6.1-14.7,8.9
			c-5.3,2.8-11.2,5.5-17.3,8.7c-6.2,3.2-12.7,6.9-19.1,11.5c-6.5,4.6-12.9,10.1-19,16.6c-6.1,6.5-11.9,14-17.2,22.1
			c-5.3,8.1-10.1,16.9-14.7,25.8c-4.5,8.9-8.8,17.9-12.9,26.5c-4.2,8.6-8.3,16.9-12.5,24.5c-4.2,7.6-8.5,14.6-12.8,21.1
			c-4.3,6.4-8.6,12.3-12.6,17.9c-4,5.6-7.7,10.8-10.8,16.1c-3.1,5.3-5.6,10.5-7.4,16c-1.8,5.5-2.9,11.2-3.5,17.3
			c-0.6,6.1-0.7,12.5-0.7,19.4c0,6.9,0,14.2-0.3,21.9c-0.3,7.7-1,15.9-2.1,24.6c-1.1,8.6-2.6,17.7-4.3,27.2s-3.6,19.2-5.2,29.1
			c-1.6,9.9-2.8,19.8-3.3,29.5c-0.5,9.7-0.3,19.1,0.9,28c1.1,8.9,3.1,17.1,5.6,24.7c2.5,7.5,5.6,14.3,8.7,20.6
			c3.1,6.2,6.2,11.8,8.9,17.2c2.7,5.4,5,10.5,6.7,15.8c1.7,5.3,2.9,10.8,3.9,16.7c1,5.9,1.7,12.3,2.9,19.2c1.1,6.9,2.6,14.2,5,21.8
			c2.4,7.6,5.6,15.4,10,23.2c4.3,7.8,9.6,15.6,15.7,23.1c6.1,7.6,12.9,14.9,20,21.9c7.1,7.1,14.3,13.9,21.3,20.5
			c6.9,6.6,13.5,13.1,19.5,19.4c6,6.4,11.3,12.6,16.1,18.7c4.8,6.1,9.1,12,13.1,17.5c4.1,5.5,7.9,10.7,12,15.3c4,4.6,8.3,8.6,13,12
			c4.7,3.4,9.8,6.2,15.4,8.6c5.6,2.4,11.7,4.5,18.2,6.7c6.5,2.2,13.5,4.4,20.7,7.1c7.3,2.7,14.9,5.8,22.7,9.6
			c7.9,3.7,16.1,8,24.5,12.5c8.4,4.5,17.2,9.3,26.1,13.9c8.9,4.5,18,8.8,27,12.3c9.1,3.5,18.1,6.1,26.9,7.8
			c8.8,1.7,17.2,2.4,25.2,2.3c8-0.1,15.4-0.9,22.3-1.9c6.9-1,13.2-2.3,19.1-3.2c5.9-0.9,11.5-1.5,17.1-1.5c5.6,0,11.1,0.6,17.1,1.5
			c5.9,0.9,12.2,2.1,19.1,3.2c6.9,1,14.3,1.9,22.2,1.9c8,0.1,16.4-0.6,25.2-2.3c8.8-1.7,17.8-4.3,26.9-7.8c9.1-3.5,18.1-7.7,27-12.3
			c8.9-4.5,17.6-9.3,26-13.9c8.4-4.5,16.6-8.8,24.5-12.5c7.9-3.7,15.5-6.9,22.7-9.6c7.3-2.7,14.2-4.9,20.7-7.1
			c6.5-2.2,12.6-4.2,18.2-6.7c5.6-2.4,10.7-5.2,15.4-8.6c4.7-3.4,8.9-7.4,13-12c4.1-4.6,7.9-9.7,12-15.3c4.1-5.5,8.3-11.4,13.1-17.5
			c4.8-6.1,10.1-12.3,16.1-18.7c6-6.3,12.5-12.8,19.5-19.4c6.9-6.6,14.2-13.4,21.3-20.5c7.1-7.1,13.9-14.4,20-21.9
			c6.1-7.5,11.4-15.3,15.7-23.1c4.3-7.8,7.6-15.7,10-23.2c2.4-7.6,3.9-14.9,5-21.8c1.1-6.9,1.9-13.2,2.9-19.2
			c1-5.9,2.2-11.4,3.9-16.7c1.7-5.3,4-10.4,6.7-15.8c2.7-5.4,5.8-11,8.9-17.2c3.1-6.2,6.2-13,8.7-20.6s4.5-15.8,5.6-24.7
			c1.1-8.8,1.4-18.3,0.9-28C1127.9,684.7,1126.6,674.8,1125.1,664.9z M1187.6,664.9c-2.9-12.7-6.2-25.2-9-37.1
			c-2.8-11.9-5.2-23.2-6.7-33.7c-1.4-10.5-1.9-20.2-1.7-29c0.3-8.9,1.3-16.9,2.3-24.2c1.1-7.3,2.1-13.9,2.4-19.8
			c0.3-6-0.1-11.3-1.8-16.2c-1.6-5-4.4-9.5-8.1-14.2c-3.8-4.6-8.5-9.3-13.6-14.6c-5.1-5.3-10.7-11.2-16.1-18.3
			c-5.4-7-10.7-15.1-15.7-24.5c-5-9.3-9.7-19.9-14.4-31.2c-4.7-11.3-9.4-23.4-14.5-35.4c-5.1-12-10.7-23.8-17.1-34.5
			c-6.3-10.7-13.4-20.4-20.9-28.3c-7.6-7.9-15.7-14.2-23.8-18.8c-8.1-4.7-16.1-7.7-23.4-10c-7.3-2.3-13.9-3.7-19.5-5.4
			c-5.6-1.7-10.2-3.6-14.1-6.4c-3.9-2.8-7.1-6.6-10.4-11.4c-3.3-4.8-6.7-10.6-11.1-16.9c-4.4-6.3-9.8-12.9-16.7-19.1
			c-6.9-6.2-15.3-12-25.2-16.8c-9.9-4.8-21.2-8.5-33.4-11.2c-12.2-2.7-25.1-4.4-38.1-5.6c-13-1.2-25.9-1.9-38.1-2.9
			c-12.2-1-23.7-2.2-34.1-4.1c-10.4-1.9-19.8-4.4-28.2-7.4c-8.3-3-15.7-6.4-22.3-9.7c-6.6-3.3-12.5-6.3-18.1-8.4
			c-5.6-2.1-10.8-3.3-16-3.3c-5.2,0-10.4,1.2-16,3.3c-5.6,2.1-11.5,5.2-18.1,8.4c-6.6,3.3-14,6.7-22.3,9.7c-8.4,3-17.7,5.5-28.1,7.4
			c-10.4,1.9-21.9,3.1-34.1,4.1c-12.2,1-25.2,1.7-38.1,2.9c-13,1.2-25.9,2.9-38.1,5.6c-12.2,2.7-23.5,6.4-33.4,11.2
			c-9.9,4.8-18.3,10.6-25.2,16.8c-6.9,6.2-12.3,12.9-16.7,19.1c-4.4,6.3-7.8,12.1-11.1,16.9c-3.3,4.8-6.5,8.6-10.4,11.4
			c-3.9,2.8-8.5,4.7-14.1,6.4c-5.6,1.7-12.2,3.1-19.5,5.4c-7.3,2.3-15.3,5.3-23.4,10c-8.1,4.6-16.2,10.9-23.8,18.8
			c-7.6,7.9-14.6,17.5-20.9,28.3c-6.3,10.7-11.9,22.5-17.1,34.5c-5.1,12-9.8,24-14.5,35.4c-4.7,11.3-9.4,21.9-14.4,31.2
			c-5,9.3-10.3,17.5-15.7,24.5c-5.4,7-11,12.9-16.1,18.3c-5.1,5.3-9.9,10-13.6,14.6c-3.8,4.6-6.5,9.2-8.1,14.2
			c-1.6,5-2.1,10.3-1.8,16.2c0.3,6,1.4,12.5,2.4,19.8c1.1,7.3,2.1,15.4,2.3,24.2c0.3,8.9-0.2,18.6-1.7,29
			c-1.4,10.5-3.8,21.8-6.7,33.7c-2.9,11.9-6.2,24.4-9,37.1c-2.9,12.7-5.3,25.5-6.5,38c-1.2,12.4-1.1,24.3,0.3,35.2
			c1.5,10.9,4.4,20.7,8.2,29.2c3.8,8.5,8.5,15.7,13,21.8c4.6,6.1,9.1,11.2,12.6,15.8c3.6,4.6,6.2,8.9,7.6,13.5
			c1.5,4.6,1.9,9.5,1.7,15.4c-0.1,5.8-0.8,12.6-0.9,20.2c-0.1,7.6,0.3,16.2,2.3,25.3c1.9,9.1,5.3,18.8,10.5,28.4
			c5.2,9.7,12.2,19.3,20.4,28.7c8.3,9.3,17.8,18.3,27.6,26.9c9.8,8.6,19.8,16.8,29.2,24.7c9.3,8,17.9,15.7,25.2,23.4
			c7.3,7.6,13.4,15.2,18.4,22.5c5,7.3,8.9,14.4,12.4,21c3.5,6.5,6.4,12.5,9.7,17.5c3.2,5,6.7,9,11,12.1c4.2,3.1,9.1,5.1,14.9,6.7
			c5.8,1.5,12.3,2.6,19.6,3.8c7.3,1.3,15.3,2.8,23.8,5.3c8.5,2.5,17.6,6,27.1,10.6c9.5,4.6,19.5,10.4,30,16.8
			c10.4,6.4,21.3,13.4,32.5,20.1c11.2,6.7,22.7,12.9,34.1,17.9s22.8,8.6,33.6,10.6c10.8,2,21,2.2,30.3,1.3c9.3-1,17.5-3.2,24.8-5.7
			c7.2-2.5,13.4-5.2,18.9-7.1c5.5-1.9,10.3-3.1,15.2-3.1s9.7,1.2,15.2,3.1c5.5,1.9,11.7,4.6,18.9,7.1c7.2,2.5,15.5,4.7,24.8,5.7
			c9.3,1,19.5,0.7,30.3-1.3c10.8-2,22.1-5.6,33.6-10.6c11.4-5,22.9-11.3,34.1-17.9c11.2-6.7,22.1-13.7,32.5-20.1
			c10.4-6.4,20.5-12.1,30-16.8s18.6-8.1,27.1-10.6c8.5-2.5,16.5-4,23.8-5.3c7.3-1.3,13.9-2.3,19.6-3.8c5.7-1.5,10.7-3.6,14.9-6.7
			c4.2-3.1,7.7-7.1,11-12.1c3.2-5,6.2-10.9,9.7-17.5c3.5-6.5,7.4-13.7,12.4-21c5-7.3,11.1-14.9,18.4-22.5
			c7.3-7.6,15.9-15.4,25.2-23.4c9.3-8,19.3-16.2,29.2-24.7c9.8-8.6,19.3-17.6,27.6-26.9c8.3-9.3,15.2-19,20.4-28.7
			c5.2-9.7,8.6-19.3,10.5-28.4c1.9-9.1,2.4-17.7,2.3-25.3c-0.1-7.6-0.7-14.4-0.9-20.2c-0.1-5.8,0.2-10.8,1.7-15.4
			c1.5-4.6,4.1-8.8,7.6-13.5c3.6-4.6,8-9.7,12.6-15.8c4.6-6.1,9.2-13.3,13-21.8c3.8-8.5,6.7-18.3,8.2-29.2
			c1.5-10.9,1.5-22.8,0.3-35.2C1192.9,690.5,1190.4,677.6,1187.6,664.9z M1137.6,664.9c-1.8-10.4-4-20.8-5.9-30.7
			c-1.9-9.9-3.6-19.5-4.8-28.5c-1.2-9-1.8-17.5-2-25.5c-0.2-8,0-15.4,0.2-22.4c0.2-7,0.3-13.4-0.1-19.5c-0.4-6.1-1.4-11.7-3.1-17.1
			c-1.7-5.4-4.3-10.5-7.5-15.7c-3.2-5.1-7.1-10.3-11.4-15.8c-4.2-5.5-8.8-11.4-13.3-18c-4.5-6.6-9-13.8-13.4-21.8
			c-4.4-8-8.6-16.7-12.9-25.9c-4.3-9.2-8.6-18.8-13.2-28.3c-4.7-9.5-9.7-18.9-15.1-27.6c-5.5-8.7-11.5-16.6-17.9-23.4
			c-6.4-6.8-13.2-12.5-20-17.1c-6.8-4.6-13.6-8.2-20-11.2c-6.4-3-12.4-5.5-17.8-8c-5.4-2.5-10.2-5.2-14.6-8.4
			c-4.4-3.2-8.4-6.9-12.4-11.3c-4.1-4.3-8.3-9.3-13.1-14.4c-4.8-5.2-10.3-10.5-16.8-15.6c-6.5-5-14-9.7-22.4-13.7
			c-8.4-4-17.8-7.3-27.7-9.8c-9.9-2.6-20.4-4.4-30.9-5.9c-10.5-1.5-21-2.6-31-3.8c-10-1.2-19.6-2.6-28.6-4.2
			c-8.9-1.7-17.2-3.7-24.8-6c-7.6-2.3-14.7-4.8-21.2-7.1c-6.5-2.3-12.7-4.4-18.5-5.9c-5.9-1.5-11.5-2.3-17.2-2.3
			c-5.7,0-11.3,0.8-17.2,2.3c-5.9,1.5-12,3.6-18.5,5.9c-6.6,2.3-13.6,4.8-21.2,7.1c-7.6,2.3-15.9,4.3-24.8,6
			c-8.9,1.7-18.5,3-28.6,4.2c-10,1.2-20.5,2.4-31,3.8c-10.5,1.5-21,3.3-30.9,5.9c-9.9,2.6-19.3,5.8-27.7,9.8
			c-8.4,4-15.9,8.7-22.4,13.7c-6.5,5-12,10.4-16.8,15.6c-4.8,5.1-9,10.1-13.1,14.4c-4.1,4.3-8.1,8.1-12.5,11.3
			c-4.4,3.2-9.2,5.8-14.6,8.4c-5.4,2.5-11.4,5-17.8,8c-6.4,3-13.2,6.6-20,11.2c-6.8,4.6-13.6,10.3-20,17.1s-12.4,14.7-17.9,23.4
			c-5.5,8.7-10.5,18-15.1,27.6c-4.6,9.5-9,19.1-13.2,28.3c-4.3,9.2-8.5,17.9-12.9,25.9c-4.4,8-8.8,15.2-13.4,21.8
			c-4.5,6.6-9.1,12.5-13.3,18c-4.2,5.5-8.1,10.7-11.4,15.8c-3.2,5.1-5.8,10.3-7.5,15.7c-1.7,5.4-2.7,11-3.1,17.1
			c-0.4,6.1-0.3,12.5-0.1,19.5c0.2,6.9,0.4,14.4,0.2,22.4c-0.2,8-0.8,16.5-2,25.5c-1.1,9-2.8,18.5-4.8,28.5
			c-1.9,9.9-4.1,20.2-5.9,30.7s-3.3,21-3.9,31.2c-0.6,10.2-0.4,20.2,0.8,29.4c1.2,9.3,3.3,17.8,6.1,25.6c2.8,7.7,6.2,14.6,9.6,20.8
			c3.4,6.2,6.8,11.7,9.7,16.9c2.9,5.2,5.2,10.2,6.9,15.3c1.7,5.2,2.7,10.5,3.5,16.4c0.7,5.9,1.2,12.4,2.1,19.4
			c0.9,7,2.2,14.6,4.5,22.5c2.3,7.9,5.6,16.1,10.1,24.3c4.5,8.2,10.1,16.3,16.7,24.3c6.5,7.9,13.9,15.5,21.5,22.9
			c7.6,7.4,15.4,14.4,22.8,21.3c7.4,6.9,14.4,13.6,20.6,20.2c6.2,6.6,11.7,13.1,16.6,19.4c4.8,6.3,9,12.5,13,18.2
			c3.9,5.7,7.6,11,11.5,15.7c3.9,4.7,8,8.7,12.6,12c4.6,3.3,9.7,6,15.3,8.2c5.6,2.3,11.8,4.1,18.5,6.1c6.7,2,13.8,4.1,21.3,6.7
			c7.5,2.7,15.4,5.9,23.6,9.8s16.8,8.5,25.6,13.4c8.9,4.9,18,10.2,27.3,15.1c9.4,5,18.9,9.6,28.5,13.4c9.5,3.8,19,6.6,28.2,8.4
			c9.2,1.7,18,2.3,26.2,2.1c8.2-0.3,15.8-1.4,22.8-2.7c6.9-1.3,13.2-2.8,19.1-4c5.8-1.1,11.3-1.8,16.7-1.8c5.4,0,10.8,0.7,16.7,1.8
			c5.9,1.1,12.1,2.6,19.1,4s14.5,2.4,22.8,2.7c8.2,0.3,17-0.3,26.2-2.1c9.2-1.7,18.7-4.6,28.2-8.4c9.5-3.8,19.1-8.4,28.5-13.4
			c9.3-5,18.5-10.2,27.3-15.1c8.9-4.9,17.4-9.5,25.6-13.4c8.2-3.9,16.1-7.1,23.6-9.8c7.5-2.6,14.6-4.8,21.3-6.7
			c6.7-2,12.9-3.8,18.5-6.1c5.6-2.3,10.7-4.9,15.3-8.2c4.6-3.3,8.7-7.3,12.6-12s7.6-10,11.5-15.7c3.9-5.7,8.1-11.9,13-18.2
			s10.3-12.8,16.6-19.4c6.2-6.6,13.2-13.3,20.6-20.2c7.4-6.9,15.2-14,22.8-21.3c7.6-7.4,15-15,21.5-22.9
			c6.5-7.9,12.2-16.1,16.7-24.3c4.5-8.2,7.8-16.4,10.1-24.3c2.3-7.9,3.6-15.5,4.5-22.5c0.9-7,1.4-13.5,2.1-19.4
			c0.8-5.9,1.8-11.3,3.4-16.4c1.7-5.1,4-10.1,6.9-15.3c2.9-5.2,6.3-10.7,9.7-16.9c3.4-6.2,6.8-13.1,9.6-20.8
			c2.8-7.7,4.9-16.3,6.1-25.6c1.2-9.3,1.4-19.2,0.8-29.4C1140.9,685.9,1139.4,675.4,1137.6,664.9z M1162.6,664.9
			c-2.4-11.6-5.1-23-7.5-33.9c-2.4-10.9-4.4-21.3-5.7-31.1c-1.3-9.8-1.9-18.8-1.8-27.3c0-8.4,0.6-16.2,1.3-23.3
			c0.6-7.1,1.2-13.6,1.2-19.6c-0.1-6-0.8-11.5-2.4-16.7c-1.7-5.2-4.3-10-7.8-14.9c-3.5-4.9-7.8-9.8-12.5-15.2
			c-4.7-5.4-9.7-11.3-14.7-18.1c-5-6.8-9.9-14.5-14.5-23.1c-4.7-8.6-9.2-18.3-13.6-28.5c-4.5-10.3-9-21.1-13.9-31.8
			c-4.9-10.7-10.2-21.3-16.1-31c-5.9-9.7-12.4-18.5-19.4-25.8c-7-7.4-14.4-13.3-21.9-17.9c-7.4-4.6-14.8-8-21.7-10.6
			c-6.9-2.6-13.1-4.6-18.6-6.7c-5.5-2.1-10.2-4.4-14.3-7.4c-4.2-3-7.8-6.8-11.5-11.4c-3.7-4.6-7.5-9.9-12.1-15.6
			c-4.6-5.7-10.1-11.7-16.8-17.4c-6.7-5.6-14.7-10.9-23.8-15.3c-9.2-4.4-19.5-7.9-30.6-10.5c-11-2.6-22.8-4.4-34.5-5.7
			c-11.7-1.3-23.4-2.3-34.6-3.3c-11.1-1.1-21.7-2.4-31.3-4.2c-9.7-1.8-18.5-4.1-26.5-6.7c-8-2.6-15.2-5.6-21.8-8.4
			c-6.6-2.8-12.6-5.4-18.3-7.2c-5.7-1.8-11.2-2.8-16.6-2.8c-5.4,0-10.9,1-16.6,2.8c-5.7,1.8-11.7,4.4-18.3,7.2
			c-6.6,2.8-13.8,5.8-21.8,8.4c-8,2.6-16.8,4.9-26.5,6.7c-9.7,1.8-20.2,3.1-31.3,4.2s-22.8,2-34.6,3.3c-11.7,1.3-23.4,3.1-34.5,5.7
			c-11,2.6-21.4,6.1-30.6,10.5c-9.2,4.4-17.1,9.6-23.8,15.3c-6.7,5.6-12.2,11.7-16.8,17.4c-4.6,5.7-8.4,11.1-12.1,15.6
			c-3.7,4.6-7.3,8.3-11.5,11.4c-4.1,3-8.8,5.3-14.3,7.4c-5.5,2.1-11.8,4.1-18.6,6.7c-6.8,2.6-14.3,6-21.7,10.6
			c-7.4,4.6-14.9,10.6-21.9,17.9c-7,7.4-13.5,16.1-19.4,25.8c-5.9,9.7-11.2,20.3-16.1,31c-4.9,10.7-9.4,21.6-13.9,31.8
			c-4.5,10.2-9,19.9-13.6,28.5c-4.7,8.6-9.6,16.3-14.5,23.1c-5,6.8-10,12.7-14.7,18.1c-4.7,5.4-9,10.3-12.5,15.2
			c-3.5,4.9-6.1,9.7-7.8,14.9c-1.7,5.2-2.4,10.7-2.4,16.7c0,6,0.6,12.5,1.2,19.6c0.6,7.1,1.2,14.9,1.3,23.3c0,8.4-0.5,17.5-1.8,27.3
			c-1.3,9.8-3.3,20.2-5.7,31.1c-2.4,10.9-5.1,22.4-7.5,33.9s-4.3,23.3-5.2,34.6c-0.9,11.3-0.8,22.2,0.5,32.3
			c1.3,10.1,3.9,19.3,7.2,27.4c3.3,8.1,7.3,15.2,11.3,21.3c4,6.2,7.9,11.4,11.1,16.4c3.2,4.9,5.7,9.5,7.3,14.4
			c1.6,4.9,2.3,10,2.6,15.9s0.2,12.5,0.6,19.8c0.4,7.3,1.3,15.4,3.4,23.9c2.1,8.5,5.5,17.4,10.3,26.4c4.8,8.9,11.2,17.8,18.6,26.5
			c7.4,8.6,15.8,16.9,24.5,24.9c8.7,8,17.6,15.6,26,23c8.3,7.4,16.1,14.6,22.9,21.8c6.8,7.1,12.6,14.2,17.5,21
			c4.9,6.8,9,13.4,12.7,19.6c3.7,6.1,7.1,11.8,10.6,16.6c3.6,4.8,7.4,8.9,11.8,12c4.4,3.2,9.4,5.6,15.1,7.5c5.7,1.9,12.1,3.4,19,5
			c7,1.6,14.5,3.4,22.5,6c8,2.6,16.5,5.9,25.4,10.2c8.9,4.3,18.2,9.4,27.8,15.1c9.6,5.7,19.7,11.8,29.9,17.6
			c10.3,5.8,20.8,11.3,31.3,15.7c10.5,4.4,20.9,7.6,30.9,9.5c10,1.8,19.5,2.3,28.2,1.7c8.7-0.6,16.7-2.3,23.8-4.2
			c7.1-1.9,13.3-4,19-5.5c5.7-1.5,10.8-2.5,15.9-2.5c5.1,0,10.3,0.9,15.9,2.5c5.7,1.5,11.9,3.6,19,5.5c7.1,1.9,15,3.6,23.8,4.2
			c8.7,0.6,18.3,0.2,28.2-1.7c10-1.8,20.4-5.1,30.9-9.5c10.5-4.4,21-9.8,31.3-15.7c10.3-5.8,20.3-11.9,29.9-17.6
			c9.6-5.7,18.9-10.8,27.8-15.1c8.9-4.2,17.4-7.6,25.4-10.2c8-2.6,15.6-4.4,22.5-6c7-1.6,13.4-3.1,19-5c5.7-1.9,10.7-4.3,15.1-7.5
			c4.4-3.2,8.2-7.2,11.8-12c3.6-4.8,6.9-10.5,10.6-16.6c3.7-6.1,7.8-12.8,12.7-19.6s10.7-13.9,17.5-21c6.8-7.1,14.6-14.4,22.9-21.8
			c8.4-7.4,17.3-15.1,26-23c8.7-8,17.2-16.3,24.5-24.9c7.4-8.6,13.7-17.5,18.6-26.5c4.8-8.9,8.2-17.8,10.3-26.4
			c2.1-8.5,3-16.6,3.4-23.9c0.4-7.3,0.3-13.9,0.6-19.8c0.3-5.9,1-11,2.6-15.9c1.6-4.9,4.1-9.5,7.3-14.4c3.2-4.9,7.1-10.2,11.1-16.4
			c4-6.2,8-13.2,11.3-21.3c3.3-8.1,5.8-17.3,7.2-27.4c1.3-10.1,1.5-21,0.5-32.3C1166.9,688.2,1164.9,676.5,1162.6,664.9z
			 M1225.1,664.9c-3.7-14.4-7.8-28.6-11.4-42c-3.5-13.4-6.4-26-8.1-37.6c-1.7-11.6-2-22.2-1.4-31.7c0.6-9.6,2.2-18.1,3.9-25.7
			c1.7-7.6,3.5-14.2,4.3-20.1c0.8-5.9,0.8-11-0.7-15.6c-1.5-4.6-4.4-8.8-8.6-13.1c-4.2-4.3-9.5-8.6-15.3-13.7
			c-5.8-5.1-12.1-11.1-18.2-18.5c-6.1-7.4-12-16.2-17.5-26.5c-5.5-10.4-10.6-22.3-15.6-35.2c-5-12.9-10-26.8-15.5-40.6
			c-5.5-13.8-11.5-27.5-18.5-39.7c-6.9-12.3-14.8-23.2-23.2-32c-8.5-8.8-17.6-15.4-26.6-20.1c-9-4.7-17.9-7.4-25.9-9.1
			c-8-1.7-15-2.4-20.8-3.4c-5.8-1-10.2-2.4-13.8-4.9c-3.5-2.6-6.2-6.4-8.9-11.6c-2.7-5.2-5.6-11.6-9.7-18.7
			c-4.1-7.1-9.4-14.7-16.6-21.8s-16.4-13.8-27.3-19.1c-11-5.3-23.8-9.4-37.6-12.2c-13.8-2.8-28.7-4.3-43.5-5.3
			c-14.8-1-29.6-1.4-43.4-2.2c-13.8-0.8-26.7-1.9-38.3-4c-11.5-2-21.7-4.9-30.6-8.5c-8.9-3.5-16.5-7.7-23.2-11.7
			c-6.7-4-12.5-7.7-17.8-10.3c-5.3-2.6-10.2-4.1-15.1-4.1s-9.7,1.5-15.1,4.1c-5.3,2.6-11.1,6.4-17.8,10.3c-6.7,4-14.3,8.1-23.2,11.7
			c-8.9,3.5-19.1,6.4-30.6,8.5c-11.5,2-24.5,3.2-38.3,4c-13.8,0.8-28.6,1.2-43.4,2.2c-14.8,1-29.7,2.5-43.5,5.3
			c-13.8,2.8-26.6,6.9-37.6,12.2c-11,5.4-20.1,12-27.3,19.1c-7.2,7.1-12.6,14.8-16.6,21.8c-4.1,7.1-6.9,13.6-9.7,18.7
			s-5.4,9-8.9,11.6c-3.6,2.6-8,3.9-13.8,4.9c-5.8,1-12.8,1.7-20.8,3.4c-8,1.7-16.9,4.4-25.9,9.1c-9,4.7-18.1,11.3-26.6,20.1
			c-8.5,8.8-16.3,19.7-23.2,32c-6.9,12.3-13,25.9-18.5,39.7c-5.5,13.8-10.5,27.7-15.5,40.6c-5,12.9-10.1,24.8-15.6,35.2
			c-5.5,10.3-11.4,19.2-17.5,26.5c-6.1,7.4-12.4,13.3-18.3,18.5c-5.8,5.1-11.2,9.5-15.3,13.7c-4.2,4.2-7.1,8.4-8.6,13.1
			c-1.5,4.6-1.6,9.7-0.7,15.6c0.9,5.9,2.6,12.5,4.3,20.1c1.7,7.6,3.3,16.1,3.9,25.7c0.6,9.5,0.2,20.1-1.4,31.7
			c-1.6,11.6-4.5,24.2-8.1,37.6c-3.6,13.4-7.7,27.6-11.4,42c-3.7,14.4-6.8,29-8.4,43c-1.6,14-1.7,27.4,0,39.5
			c1.7,12.1,5.1,22.8,9.7,31.9c4.6,9.1,10.2,16.5,15.6,22.6c5.5,6.1,10.7,10.8,14.8,15c4.1,4.2,6.9,7.9,8.2,12.1
			c1.4,4.2,1.3,8.8,0.4,14.6c-0.8,5.8-2.3,12.7-3.2,20.8s-1,17.4,0.6,27.5c1.7,10,5.2,20.8,10.9,31.5c5.7,10.8,13.7,21.6,23.2,32
			c9.6,10.4,20.7,20.4,32.1,29.9c11.4,9.5,23.1,18.5,33.9,27.3c10.7,8.8,20.5,17.3,28.7,25.7c8.1,8.4,14.7,16.8,19.8,24.8
			c5.1,8.1,8.8,15.9,11.9,23.1c3.1,7.1,5.6,13.6,8.3,18.8c2.8,5.3,5.8,9.3,9.8,12.2c3.9,2.9,8.8,4.5,14.6,5.5
			c5.9,1,12.7,1.4,20.5,2.1s16.3,1.8,25.6,4.2c9.3,2.4,19.2,6,29.7,11.2c10.5,5.2,21.6,11.8,33.3,19.3c11.7,7.5,23.9,15.8,36.4,23.8
			c12.6,7.9,25.5,15.4,38.3,21.3c12.8,5.9,25.6,10.1,37.6,12.2c12,2.1,23.3,2.1,33.3,0.6c10-1.5,18.8-4.6,26.3-7.9
			c7.5-3.3,13.6-6.9,18.8-9.5c5.2-2.6,9.6-4.1,14-4.1s8.8,1.5,14,4.1c5.2,2.6,11.4,6.1,18.8,9.5c7.5,3.3,16.3,6.4,26.3,7.9
			c10,1.5,21.3,1.5,33.4-0.6c12-2.1,24.8-6.3,37.6-12.2c12.8-5.9,25.8-13.3,38.3-21.3c12.6-7.9,24.8-16.3,36.4-23.8
			c11.7-7.5,22.8-14.2,33.3-19.3c10.5-5.1,20.5-8.8,29.8-11.2c9.3-2.4,17.9-3.5,25.6-4.2c7.7-0.7,14.6-1.1,20.5-2.1
			c5.8-1,10.7-2.7,14.6-5.5s7-6.9,9.8-12.2c2.8-5.3,5.2-11.7,8.3-18.8c3.1-7.1,6.8-15,11.9-23.1c5.1-8.1,11.7-16.4,19.8-24.8
			c8.2-8.4,17.9-16.9,28.7-25.7c10.8-8.8,22.5-17.8,33.9-27.3c11.4-9.5,22.5-19.5,32.1-29.9c9.6-10.4,17.5-21.2,23.2-32
			c5.7-10.8,9.3-21.5,10.9-31.5c1.6-10,1.5-19.3,0.6-27.5s-2.3-15-3.2-20.8c-0.8-5.8-0.9-10.4,0.4-14.6c1.3-4.2,4.2-7.9,8.2-12.1
			c4.1-4.2,9.3-8.9,14.8-15c5.5-6.1,11.1-13.5,15.6-22.6c4.6-9.1,8-19.8,9.7-31.9c1.7-12.1,1.6-25.5,0-39.5
			C1231.8,693.9,1228.7,679.3,1225.1,664.9z M1175.1,664.9c-2.6-12.1-5.6-24.1-8.3-35.5c-2.6-11.4-4.8-22.3-6.2-32.4
			c-1.4-10.1-1.9-19.5-1.7-28.2c0.2-8.7,1-16.5,1.8-23.8c0.8-7.2,1.7-13.8,1.8-19.7c0.1-6-0.4-11.4-2.1-16.4
			c-1.6-5.1-4.4-9.8-8-14.5c-3.6-4.8-8.1-9.6-13.1-14.9c-4.9-5.4-10.2-11.3-15.4-18.2c-5.2-6.9-10.3-14.8-15.2-23.8
			c-4.8-9-9.4-19.1-14-29.9c-4.6-10.8-9.2-22.2-14.2-33.6c-5-11.4-10.5-22.6-16.6-32.8c-6.1-10.2-12.9-19.4-20.2-27
			c-7.3-7.6-15.1-13.7-22.8-18.4c-7.8-4.6-15.5-7.8-22.5-10.3c-7.1-2.4-13.5-4.2-19.1-6c-5.5-1.9-10.2-4-14.2-6.9
			c-4-2.9-7.4-6.7-11-11.4c-3.5-4.7-7.1-10.3-11.6-16.3c-4.5-6-9.9-12.3-16.7-18.2c-6.8-5.9-15-11.5-24.5-16
			c-9.5-4.6-20.4-8.2-32-10.8c-11.6-2.7-24-4.4-36.3-5.6c-12.3-1.3-24.7-2.1-36.3-3.1c-11.7-1-22.7-2.3-32.7-4.1
			c-10.1-1.8-19.1-4.2-27.3-7.1c-8.2-2.8-15.4-6-22-9c-6.6-3-12.6-5.8-18.2-7.8c-5.6-2-11-3.1-16.3-3.1c-5.3,0-10.7,1.1-16.3,3.1
			c-5.6,2-11.6,4.8-18.2,7.8c-6.6,3-13.9,6.2-22.1,9c-8.2,2.8-17.3,5.2-27.3,7.1c-10,1.8-21.1,3.1-32.7,4.1c-11.7,1-24,1.9-36.3,3.1
			c-12.3,1.3-24.7,3-36.3,5.6c-11.6,2.7-22.4,6.3-32,10.8c-9.5,4.6-17.7,10.1-24.5,16c-6.8,5.9-12.2,12.3-16.7,18.2
			c-4.5,6-8.1,11.6-11.6,16.3c-3.5,4.7-6.9,8.5-11,11.4c-4,2.9-8.7,5-14.2,6.9c-5.5,1.9-12,3.6-19.1,6c-7.1,2.5-14.8,5.7-22.5,10.3
			c-7.8,4.6-15.5,10.7-22.8,18.4c-7.3,7.6-14.1,16.8-20.2,27c-6.1,10.2-11.6,21.4-16.6,32.8c-5,11.3-9.6,22.8-14.2,33.6
			c-4.6,10.8-9.2,20.9-14,29.9c-4.9,9-9.9,16.9-15.2,23.8c-5.2,6.9-10.5,12.8-15.4,18.2c-4.9,5.3-9.4,10.2-13.1,14.9
			s-6.3,9.5-8,14.5c-1.7,5.1-2.2,10.5-2.1,16.4c0.1,6,1,12.5,1.8,19.7c0.8,7.2,1.6,15.1,1.8,23.8c0.1,8.6-0.4,18-1.7,28.2
			c-1.4,10.1-3.6,21-6.2,32.4c-2.6,11.4-5.6,23.4-8.3,35.5s-4.8,24.4-5.9,36.3c-1.1,11.9-1,23.3,0.4,33.8c1.4,10.5,4.1,20,7.7,28.3
			c3.5,8.3,7.9,15.4,12.2,21.6c4.3,6.1,8.5,11.3,11.9,16.1c3.4,4.8,5.9,9.2,7.5,13.9c1.5,4.7,2.1,9.8,2.1,15.7
			c0.1,5.9-0.3,12.5-0.1,20c0.1,7.5,0.8,15.8,2.8,24.6c2,8.8,5.4,18.1,10.4,27.4c5,9.3,11.7,18.6,19.5,27.6
			c7.8,9,16.8,17.6,26.1,25.9c9.2,8.3,18.7,16.2,27.6,23.9c8.8,7.7,17,15.2,24.1,22.6c7.1,7.4,13,14.7,18,21.8
			c5,7.1,9,13.9,12.5,20.3c3.6,6.3,6.7,12.1,10.2,17c3.4,4.9,7.1,8.9,11.4,12.1c4.3,3.1,9.3,5.4,15,7.1c5.7,1.7,12.2,3,19.3,4.4
			c7.1,1.4,14.9,3.1,23.2,5.7c8.3,2.5,17.1,5.9,26.3,10.3c9.2,4.4,18.8,9.9,28.9,15.9c10,6,20.5,12.6,31.2,18.8
			c10.7,6.2,21.7,12.1,32.7,16.8s21.8,8.1,32.2,10c10.4,1.9,20.3,2.3,29.3,1.4c9-0.8,17.1-2.7,24.3-4.9c7.2-2.2,13.4-4.6,19-6.3
			c5.6-1.7,10.6-2.8,15.6-2.8c5,0,10,1.1,15.5,2.8c5.6,1.7,11.8,4.1,19,6.3c7.2,2.2,15.3,4.1,24.3,4.9c9,0.8,18.9,0.4,29.3-1.4
			c10.4-1.9,21.3-5.3,32.2-10s22-10.5,32.7-16.8c10.7-6.2,21.2-12.8,31.2-18.8c10-6,19.7-11.5,28.9-15.9c9.2-4.4,18-7.8,26.2-10.3
			c8.3-2.5,16-4.2,23.2-5.7c7.1-1.4,13.6-2.7,19.3-4.4c5.7-1.7,10.7-3.9,15-7.1c4.3-3.1,8-7.2,11.4-12.1c3.4-4.9,6.6-10.7,10.2-17
			c3.6-6.3,7.6-13.2,12.5-20.3c5-7.1,10.9-14.4,18-21.8c7-7.4,15.2-14.9,24.1-22.6c8.8-7.7,18.3-15.6,27.6-23.9
			c9.3-8.3,18.2-16.9,26.1-25.9c7.8-9,14.5-18.3,19.5-27.6c5-9.3,8.4-18.6,10.4-27.4c2-8.8,2.7-17.1,2.8-24.6
			c0.1-7.5-0.2-14.1-0.1-20c0.1-5.9,0.6-10.9,2.2-15.7c1.5-4.7,4.1-9.1,7.4-13.9c3.4-4.8,7.6-10,11.9-16.1
			c4.3-6.1,8.6-13.3,12.2-21.6c3.5-8.3,6.3-17.8,7.7-28.3c1.4-10.5,1.5-21.9,0.4-33.8C1179.9,689.3,1177.7,677.1,1175.1,664.9z
			 M1200.1,664.9c-3.1-13.3-6.7-26.3-9.8-38.8c-3.1-12.4-5.6-24.2-7.1-35c-1.5-10.9-2-20.8-1.6-29.9c0.4-9.1,1.6-17.3,2.9-24.7
			c1.3-7.4,2.6-14,3.1-19.9c0.5-5.9,0.2-11.2-1.4-16c-1.6-4.8-4.4-9.3-8.3-13.8c-3.9-4.5-8.8-9.1-14.2-14.3
			c-5.4-5.2-11.2-11.2-16.8-18.3c-5.7-7.1-11.2-15.5-16.3-25.2c-5.2-9.7-10-20.7-14.8-32.5c-4.8-11.8-9.6-24.5-14.8-37.1
			c-5.3-12.6-11-25-17.5-36.3c-6.5-11.3-13.8-21.3-21.7-29.5c-7.9-8.2-16.3-14.6-24.7-19.3c-8.4-4.6-16.7-7.6-24.2-9.7
			c-7.5-2.1-14.3-3.3-19.9-4.7c-5.6-1.5-10.2-3.2-14-5.9c-3.8-2.8-6.8-6.5-9.9-11.5c-3.1-4.9-6.4-11-10.7-17.5
			c-4.3-6.5-9.7-13.5-16.7-20.1c-7-6.5-15.7-12.6-25.9-17.6c-10.2-5-22.1-8.8-34.8-11.5c-12.7-2.7-26.3-4.4-39.9-5.5
			c-13.6-1.1-27.1-1.7-39.9-2.6c-12.8-0.9-24.7-2.1-35.5-4c-10.8-1.9-20.4-4.6-29-7.7c-8.5-3.2-16-6.9-22.6-10.4
			c-6.7-3.5-12.5-6.8-18-9.1c-5.5-2.3-10.6-3.6-15.7-3.6c-5.1,0-10.2,1.3-15.7,3.6c-5.5,2.3-11.3,5.6-18,9.1
			c-6.7,3.5-14.1,7.2-22.6,10.4c-8.5,3.2-18.2,5.8-29,7.7c-10.8,1.9-22.8,3.1-35.5,4c-12.8,0.9-26.3,1.5-39.9,2.6
			c-13.6,1.1-27.2,2.7-39.9,5.5c-12.7,2.7-24.5,6.6-34.8,11.5c-10.2,5-18.9,11-25.9,17.6c-7,6.5-12.4,13.5-16.7,20.1
			c-4.3,6.5-7.5,12.6-10.7,17.5c-3.1,4.9-6.2,8.7-9.9,11.5c-3.8,2.8-8.3,4.5-14,5.9c-5.6,1.4-12.4,2.7-19.9,4.7
			c-7.5,2.1-15.8,5-24.2,9.7c-8.4,4.7-16.8,11-24.7,19.3c-7.9,8.2-15.2,18.2-21.7,29.5c-6.5,11.3-12.3,23.7-17.5,36.3
			c-5.3,12.6-10,25.3-14.8,37.1c-4.8,11.9-9.6,22.9-14.8,32.5c-5.2,9.7-10.7,18-16.3,25.2c-5.7,7.1-11.5,13.1-16.8,18.3
			c-5.4,5.2-10.3,9.8-14.2,14.3c-3.9,4.5-6.7,9-8.3,13.8c-1.6,4.9-1.9,10.1-1.4,16c0.5,5.9,1.8,12.5,3.1,19.9
			c1.3,7.4,2.5,15.6,2.9,24.7c0.4,9.1-0.1,19.1-1.6,29.9c-1.5,10.9-4,22.6-7.1,35c-3.1,12.4-6.7,25.5-9.8,38.8
			c-3.1,13.3-5.8,26.7-7.1,39.6c-1.3,12.9-1.3,25.4,0.2,36.6c1.5,11.3,4.6,21.4,8.7,30.1c4,8.7,9,16,13.9,22.1
			c4.9,6.1,9.6,11,13.3,15.5s6.4,8.5,7.8,13c1.5,4.5,1.7,9.3,1.3,15.1c-0.4,5.8-1.3,12.6-1.7,20.4c-0.4,7.8-0.1,16.6,1.7,26
			c1.8,9.4,5.3,19.4,10.7,29.5c5.4,10,12.7,20.1,21.4,29.8c8.7,9.7,18.7,19,29.1,27.9c10.3,8.9,20.9,17.3,30.7,25.6
			c9.8,8.2,18.8,16.2,26.4,24.1c7.6,7.9,13.9,15.7,18.9,23.3c5,7.6,8.9,14.9,12.2,21.7c3.3,6.7,6.2,12.8,9.2,17.9
			c3.1,5.1,6.4,9.1,10.6,12.1c4.1,3,9,4.9,14.8,6.3c5.8,1.4,12.5,2.2,19.9,3.3c7.4,1.1,15.6,2.5,24.4,4.9c8.8,2.4,18.1,6,28,10.8
			c9.9,4.8,20.2,10.8,31.1,17.6c10.8,6.8,22.2,14.2,33.8,21.3c11.6,7.1,23.6,13.8,35.5,19c11.9,5.3,23.7,9.1,34.9,11.1
			c11.2,2,21.8,2.2,31.3,1c9.5-1.2,18-3.7,25.3-6.4c7.3-2.8,13.5-5.7,18.9-7.9s10.1-3.4,14.8-3.4s9.4,1.3,14.8,3.4
			c5.4,2.2,11.6,5.1,18.9,7.9c7.3,2.8,15.8,5.3,25.3,6.4c9.5,1.2,20.1,1,31.3-1c11.2-2,23-5.9,34.9-11.1c11.9-5.3,23.9-11.9,35.5-19
			c11.6-7.1,23-14.5,33.8-21.3s21.2-12.8,31.1-17.6c9.9-4.8,19.2-8.3,28-10.8c8.8-2.4,17-3.8,24.4-4.9c7.4-1.1,14.1-1.9,19.9-3.3
			s10.7-3.3,14.8-6.3c4.1-3,7.5-7.1,10.6-12.1c3.1-5.1,5.9-11.2,9.2-17.9c3.3-6.7,7.2-14.1,12.2-21.7c5-7.6,11.3-15.4,18.9-23.3
			c7.6-7.9,16.6-15.9,26.4-24.1c9.8-8.2,20.4-16.7,30.7-25.6c10.3-8.9,20.4-18.2,29.1-27.9c8.7-9.7,16-19.7,21.4-29.8
			c5.4-10,8.8-20,10.7-29.5c1.8-9.4,2.1-18.2,1.7-26c-0.4-7.8-1.3-14.6-1.7-20.4s-0.2-10.7,1.3-15.1c1.4-4.5,4.1-8.5,7.8-13
			s8.5-9.4,13.3-15.5c4.9-6.1,9.8-13.4,13.9-22.1c4-8.7,7.1-18.8,8.7-30.1c1.6-11.3,1.6-23.7,0.2-36.6
			C1205.9,691.6,1203.2,678.2,1200.1,664.9z M1262.6,664.9c-4.5-16.1-9.5-31.9-13.7-46.8c-4.2-14.9-7.6-28.8-9.5-41.6
			c-1.8-12.7-2.2-24.2-1.2-34.4c1-10.2,3.2-19.2,5.5-27.1c2.4-7.9,4.8-14.6,6.2-20.4c1.4-5.8,1.7-10.7,0.3-15
			c-1.4-4.3-4.5-8.1-9-11.9c-4.5-3.9-10.5-7.9-17-12.8c-6.5-5-13.6-11-20.4-18.7c-6.8-7.7-13.3-17.2-19.3-28.6
			c-6-11.4-11.4-24.7-16.8-39.2c-5.3-14.5-10.6-30.3-16.4-45.9c-5.9-15.7-12.4-31.1-19.9-45c-7.6-13.8-16.2-26-25.5-35.7
			c-9.4-9.6-19.5-16.7-29.5-21.4c-10-4.7-19.8-7-28.5-8.1c-8.7-1.1-16.2-1.1-22.1-1.5c-5.9-0.4-10.2-1.1-13.4-3.5
			c-3.2-2.3-5.3-6.2-7.4-11.7c-2.2-5.5-4.5-12.6-8.2-20.6s-9-16.5-16.5-24.6c-7.5-8-17.4-15.5-29.5-21.4
			c-12.1-5.9-26.3-10.3-41.8-13.2c-15.5-2.9-32.2-4.3-48.9-5c-16.7-0.7-33.3-0.9-48.8-1.5c-15.5-0.6-29.8-1.7-42.5-3.8
			c-12.7-2.2-23.7-5.4-33.1-9.5c-9.4-4.1-17.3-8.9-24.1-13.6c-6.7-4.7-12.4-9.1-17.5-12.2c-5.1-3.1-9.6-4.9-14.1-4.9
			c-4.5,0-9.1,1.8-14.1,4.9c-5.1,3.1-10.7,7.5-17.5,12.2c-6.8,4.7-14.6,9.5-24.1,13.6c-9.4,4.1-20.5,7.3-33.1,9.5
			c-12.7,2.2-27,3.2-42.5,3.8c-15.5,0.6-32.1,0.7-48.8,1.5c-16.7,0.7-33.4,2.1-48.9,5c-15.5,2.9-29.8,7.3-41.8,13.2
			c-12.1,5.9-21.9,13.4-29.5,21.4c-7.6,8.1-12.8,16.7-16.6,24.6s-6,15-8.2,20.6c-2.2,5.5-4.2,9.4-7.4,11.7
			c-3.2,2.3-7.5,3.1-13.4,3.5c-5.9,0.4-13.4,0.3-22.1,1.5c-8.7,1.1-18.5,3.5-28.5,8.1c-10,4.7-20.1,11.8-29.5,21.4
			c-9.4,9.6-18,21.8-25.5,35.7c-7.5,13.9-14.1,29.3-19.9,45c-5.9,15.6-11.1,31.4-16.4,45.9c-5.3,14.5-10.8,27.8-16.8,39.2
			c-6,11.4-12.5,20.8-19.3,28.6c-6.8,7.7-13.9,13.7-20.4,18.7c-6.5,5-12.5,9-17,12.8c-4.5,3.9-7.6,7.6-9,11.9
			c-1.4,4.3-1.1,9.2,0.3,15c1.4,5.8,3.9,12.5,6.2,20.4c2.4,7.9,4.5,16.8,5.5,27.1c1,10.2,0.7,21.7-1.2,34.4
			c-1.9,12.7-5.3,26.7-9.5,41.6c-4.2,14.9-9.2,30.7-13.7,46.8s-8.3,32.5-10.3,48.1c-2,15.7-2.2,30.6-0.3,43.9
			c1.9,13.3,5.9,25,11.3,34.6c5.3,9.7,11.9,17.3,18.2,23.3c6.3,6,12.4,10.4,17,14.2c4.6,3.8,7.6,6.9,8.8,10.7
			c1.2,3.7,0.6,8.1-0.9,13.8c-1.5,5.7-3.8,12.9-5.4,21.5c-1.6,8.6-2.4,18.6-1,29.6c1.4,11,5,22.8,11.3,34.6
			c6.3,11.9,15.2,23.8,26,35.3s23.6,22.4,36.6,32.8c13.1,10.4,26.4,20.3,38.6,29.8c12.2,9.6,23.1,18.9,32.1,28.1
			c9,9.2,16,18.3,21.2,27.2c5.2,8.8,8.8,17.4,11.5,25.2c2.7,7.8,4.7,14.6,7,20.1c2.3,5.5,4.9,9.6,8.6,12.3c3.7,2.7,8.4,3.9,14.3,4.3
			c6,0.5,13.1,0.2,21.3,0.4c8.2,0.2,17.4,0.9,27.5,3.1c10,2.3,20.9,6.1,32.4,11.8c11.5,5.7,23.7,13.2,36.6,21.9
			c12.9,8.6,26.4,18.3,40.3,27.5c13.9,9.2,28.3,17.9,42.5,24.7c14.3,6.8,28.4,11.6,41.6,13.9c13.2,2.3,25.6,2.1,36.4,0
			c10.8-2.1,20.1-5.9,27.8-10.1c7.7-4.2,13.7-8.6,18.7-11.8c5-3.2,8.9-5.1,12.9-5.1s7.9,1.9,12.9,5.1c5,3.2,11,7.6,18.7,11.8
			c7.7,4.2,17,8.1,27.8,10.1c10.8,2.1,23.2,2.3,36.4,0c13.3-2.3,27.4-7.1,41.6-13.9s28.6-15.5,42.6-24.7
			c13.9-9.2,27.4-18.9,40.3-27.5c12.9-8.6,25.1-16.2,36.6-21.9c11.5-5.7,22.3-9.5,32.4-11.8c10-2.2,19.3-2.9,27.5-3.1
			c8.2-0.2,15.4,0.1,21.3-0.4c5.9-0.5,10.6-1.7,14.3-4.3c3.7-2.7,6.3-6.8,8.5-12.3c2.3-5.5,4.2-12.4,7-20.1
			c2.7-7.7,6.2-16.3,11.5-25.2c5.2-8.8,12.2-18,21.2-27.2c9-9.2,19.9-18.5,32.1-28.1c12.2-9.6,25.5-19.4,38.6-29.8
			c13.1-10.4,25.8-21.4,36.6-32.8c10.8-11.5,19.8-23.4,26-35.3c6.3-11.9,9.9-23.7,11.3-34.6c1.4-10.9,0.6-21-1-29.6
			c-1.6-8.6-3.9-15.7-5.4-21.5c-1.5-5.7-2.1-10.1-0.9-13.8c1.2-3.7,4.3-6.9,8.8-10.7c4.6-3.8,10.7-8.2,17-14.2
			c6.4-6,12.9-13.7,18.2-23.3c5.3-9.7,9.3-21.3,11.3-34.6c1.9-13.3,1.7-28.2-0.3-43.9C1270.8,697.4,1267,681,1262.6,664.9z
			 M1237.6,664.9c-3.9-15-8.4-29.7-12.1-43.6c-3.8-13.9-6.8-27-8.6-39c-1.7-12-2.1-22.8-1.3-32.6c0.7-9.8,2.5-18.5,4.4-26.1
			c1.9-7.7,3.9-14.4,5-20.2c1-5.8,1.1-10.9-0.4-15.4c-1.5-4.5-4.5-8.6-8.7-12.7c-4.3-4.1-9.8-8.3-15.9-13.4
			c-6.1-5.1-12.6-11.1-19-18.5c-6.3-7.5-12.4-16.5-18.1-27.2s-10.9-23.1-16-36.5c-5.1-13.5-10.2-28-15.8-42.4
			c-5.6-14.4-11.8-28.7-19-41.5c-7.1-12.8-15.2-24.1-24-33.2c-8.8-9.1-18.2-15.9-27.6-20.6c-9.3-4.7-18.5-7.2-26.8-8.8
			c-8.2-1.5-15.4-2-21.2-2.8c-5.8-0.8-10.2-1.9-13.6-4.4c-3.4-2.5-5.9-6.3-8.4-11.6c-2.6-5.3-5.2-12-9.2-19.3
			c-4-7.4-9.3-15.3-16.6-22.8c-7.3-7.4-16.7-14.3-28-19.9c-11.3-5.5-24.6-9.7-39-12.6c-14.4-2.8-29.9-4.3-45.3-5.2
			c-15.5-0.9-30.8-1.2-45.2-1.9c-14.4-0.7-27.8-1.8-39.7-3.9c-11.9-2.1-22.4-5.1-31.5-8.8c-9.1-3.7-16.8-8.1-23.5-12.3
			c-6.7-4.2-12.4-8.2-17.7-11c-5.2-2.8-10-4.4-14.7-4.4c-4.8,0-9.5,1.6-14.8,4.4c-5.3,2.8-11,6.7-17.7,11
			c-6.7,4.2-14.4,8.6-23.5,12.3c-9.1,3.7-19.5,6.7-31.5,8.8c-11.9,2.1-25.3,3.2-39.7,3.9c-14.4,0.7-29.8,1-45.2,1.9
			c-15.4,0.9-30.9,2.4-45.3,5.2c-14.4,2.8-27.7,7-39,12.6c-11.3,5.6-20.7,12.4-28.1,19.9c-7.3,7.4-12.6,15.4-16.6,22.8
			c-4,7.3-6.6,14-9.2,19.3c-2.6,5.3-5,9.1-8.4,11.6c-3.4,2.5-7.8,3.6-13.6,4.4c-5.8,0.8-13,1.3-21.2,2.8c-8.2,1.5-17.4,4.1-26.8,8.8
			c-9.3,4.7-18.8,11.5-27.6,20.6c-8.8,9.1-16.8,20.4-24,33.2c-7.1,12.8-13.3,27.1-19,41.5c-5.6,14.4-10.7,28.9-15.8,42.4
			c-5.1,13.5-10.3,25.8-16,36.5c-5.7,10.7-11.8,19.7-18.1,27.2c-6.3,7.5-12.9,13.4-19,18.5c-6.1,5.1-11.6,9.3-15.9,13.4
			c-4.3,4.1-7.3,8.2-8.7,12.7c-1.5,4.5-1.4,9.5-0.4,15.4c1,5.9,3,12.5,5,20.2c1.9,7.7,3.7,16.4,4.4,26.1c0.7,9.8,0.4,20.7-1.3,32.6
			c-1.7,12-4.8,25-8.6,39c-3.8,13.9-8.2,28.6-12.1,43.6s-7.3,30.2-9,44.7c-1.8,14.6-1.9,28.5-0.1,41c1.8,12.5,5.4,23.5,10.2,32.8
			c4.8,9.3,10.7,16.8,16.5,22.8c5.8,6.1,11.3,10.7,15.5,14.7c4.2,4.1,7.1,7.6,8.4,11.6c1.3,4,1.1,8.6,0,14.3c-1,5.8-2.8,12.8-3.9,21
			c-1.1,8.3-1.5,17.8,0.1,28.2c1.6,10.3,5.1,21.4,11,32.6c5.9,11.1,14.2,22.3,24.2,33.1c10,10.7,21.6,21.1,33.6,30.9
			c12,9.8,24.2,19.1,35.4,28.1c11.2,9,21.4,17.8,29.8,26.5c8.4,8.7,15.1,17.3,20.3,25.6c5.2,8.3,8.8,16.4,11.8,23.8
			c3,7.3,5.3,13.9,7.9,19.3c2.6,5.3,5.5,9.4,9.3,12.2c3.9,2.8,8.6,4.3,14.5,5.1c5.9,0.8,12.8,1,20.7,1.5c7.9,0.5,16.7,1.5,26.2,3.8
			c9.5,2.3,19.8,6,30.6,11.4c10.9,5.3,22.3,12.3,34.4,20.2c12.1,7.9,24.7,16.7,37.7,25c13,8.4,26.4,16.3,39.7,22.4
			c13.3,6.2,26.5,10.6,38.9,12.8c12.4,2.2,24.1,2.1,34.4,0.4c10.3-1.7,19.3-5,26.8-8.7c7.5-3.6,13.6-7.5,18.8-10.2
			c5.2-2.8,9.4-4.4,13.6-4.4c4.2,0,8.5,1.7,13.6,4.4s11.3,6.6,18.8,10.2c7.5,3.6,16.5,6.9,26.8,8.7c10.3,1.7,22,1.8,34.4-0.4
			c12.4-2.2,25.6-6.6,38.9-12.8c13.3-6.2,26.7-14.1,39.7-22.4s25.7-17.1,37.7-25c12.1-7.9,23.5-14.8,34.4-20.2
			c10.9-5.3,21.1-9,30.6-11.4c9.5-2.3,18.3-3.3,26.2-3.8c7.9-0.6,14.9-0.7,20.7-1.5c5.9-0.8,10.7-2.3,14.5-5.1
			c3.8-2.8,6.8-6.9,9.4-12.2c2.6-5.3,4.9-11.9,7.9-19.3c3-7.3,6.6-15.4,11.8-23.8c5.2-8.3,11.9-16.9,20.3-25.6
			c8.4-8.7,18.6-17.5,29.8-26.5c11.2-9,23.5-18.3,35.4-28.1c12-9.8,23.6-20.1,33.6-30.9c10-10.8,18.3-21.9,24.2-33.1
			c5.9-11.2,9.5-22.2,11-32.6c1.6-10.3,1.2-19.9,0.1-28.2c-1.1-8.3-2.9-15.3-3.9-21c-1-5.8-1.3-10.3,0-14.3c1.3-4,4.2-7.5,8.4-11.6
			c4.2-4,9.8-8.7,15.5-14.7c5.8-6,11.7-13.5,16.5-22.8c4.8-9.3,8.5-20.3,10.2-32.8c1.8-12.5,1.7-26.4-0.1-41
			C1244.8,695.1,1241.5,679.9,1237.6,664.9z M1287.6,664.9c-5-17.2-10.6-34.2-15.2-50.1c-4.7-15.9-8.4-30.7-10.4-44.2
			c-2-13.5-2.2-25.5-1-36.2c1.2-10.7,3.8-20,6.6-28c2.8-8,5.7-14.8,7.5-20.6c1.8-5.7,2.3-10.4,1-14.5c-1.3-4.1-4.5-7.6-9.3-11.2
			c-4.8-3.6-11.1-7.4-18.1-12.2c-7-4.9-14.5-10.9-21.8-18.8c-7.3-7.9-14.2-17.9-20.5-29.9c-6.3-12.1-12-26.3-17.5-41.9
			c-5.5-15.6-11-32.6-17.1-49.5c-6.1-16.9-12.9-33.6-20.9-48.5c-8-14.9-17.1-27.9-27-38.1c-10-10.2-20.7-17.6-31.4-22.3
			c-10.6-4.7-21-6.8-30.2-7.5c-9.1-0.7-16.9-0.2-22.9-0.1c-6,0.1-10.2-0.3-13.2-2.5c-2.9-2.1-4.6-6-6.4-11.8
			c-1.8-5.7-3.7-13.3-7.2-21.8c-3.5-8.5-8.7-17.7-16.5-26.4c-7.8-8.6-18.1-16.6-30.9-22.9c-12.8-6.3-28-11-44.6-13.9
			c-16.6-3-34.6-4.3-52.5-4.9c-17.9-0.6-35.8-0.5-52.3-1c-16.6-0.4-31.8-1.5-45.2-3.7c-13.4-2.3-25-5.8-34.8-10.2
			c-9.8-4.4-17.8-9.8-24.6-14.9c-6.8-5.1-12.3-10-17.3-13.5c-4.9-3.4-9.2-5.4-13.5-5.4c-4.3,0-8.6,2-13.5,5.4
			c-4.9,3.5-10.5,8.3-17.3,13.5c-6.8,5.1-14.8,10.5-24.6,14.9c-9.8,4.4-21.4,7.9-34.8,10.2c-13.4,2.3-28.7,3.3-45.2,3.7
			c-16.6,0.5-34.4,0.4-52.3,1c-17.9,0.6-35.9,1.9-52.5,4.9c-16.6,3-31.8,7.6-44.6,13.9c-12.8,6.3-23.1,14.3-30.9,22.9
			c-7.8,8.6-13,17.9-16.5,26.4c-3.5,8.5-5.4,16-7.2,21.8c-1.8,5.7-3.5,9.6-6.4,11.8c-2.9,2.1-7.2,2.6-13.2,2.5
			c-6-0.1-13.8-0.6-23,0.1c-9.1,0.8-19.5,2.8-30.2,7.5c-10.6,4.7-21.4,12.1-31.4,22.3c-10,10.2-19.1,23.2-27,38.1
			c-8,14.9-14.8,31.6-20.9,48.5c-6.1,16.9-11.5,33.9-17.1,49.5c-5.6,15.6-11.2,29.8-17.5,41.9s-13.2,22-20.5,29.9
			c-7.3,7.9-14.8,13.9-21.8,18.8c-7,4.9-13.3,8.6-18.1,12.2c-4.8,3.6-8,7.1-9.3,11.2c-1.3,4.1-0.8,8.8,1,14.5
			c1.8,5.7,4.7,12.5,7.5,20.6c2.8,8,5.4,17.3,6.6,28c1.2,10.7,1,22.8-1,36.2c-2,13.5-5.7,28.3-10.4,44.2
			c-4.7,15.9-10.3,32.8-15.2,50.1s-9.3,34.8-11.6,51.5c-2.3,16.7-2.6,32.6-0.5,46.7c2.1,14.1,6.5,26.4,12.3,36.5
			c5.8,10,13,17.9,20,23.8c6.9,6,13.6,10.1,18.5,13.6c4.9,3.5,8.1,6.3,9.2,9.8c1.1,3.5,0.2,7.6-1.7,13.3c-1.9,5.7-4.8,13-6.9,21.9
			c-2.1,8.9-3.3,19.5-2.2,31c1.2,11.5,4.9,24.1,11.5,36.7s16.2,25.3,27.9,37.5c11.7,12.2,25.5,23.8,39.6,34.8
			c14.2,11,28.6,21.4,41.8,31.5c13.1,10.1,24.9,19.9,34.4,29.6c9.5,9.7,16.8,19.3,22.1,28.7c5.3,9.3,8.7,18.4,11.2,26.5
			c2.5,8.2,4.1,15.4,6,21c1.9,5.7,4.3,9.8,7.8,12.3c3.5,2.5,8.1,3.5,14.1,3.6c6,0.1,13.4-0.6,21.9-0.8c8.5-0.2,18.2,0.2,28.7,2.4
			c10.5,2.2,22,6.1,34.1,12.2c12.2,6.1,25.1,14.2,38.8,23.6c13.7,9.4,28.1,19.9,42.9,30c14.9,10.1,30.2,19.6,45.4,26.9
			c15.2,7.4,30.2,12.6,44.3,15s27.1,2,38.5-0.4c11.4-2.4,21-6.9,28.8-11.6c7.8-4.8,13.8-9.8,18.7-13.4c4.8-3.6,8.5-5.7,12.1-5.7
			c3.6,0,7.3,2.1,12.1,5.7c4.8,3.6,10.8,8.6,18.7,13.4c7.8,4.8,17.5,9.2,28.8,11.6c11.4,2.4,24.4,2.8,38.5,0.4
			c14-2.4,29.1-7.6,44.3-15c15.2-7.4,30.5-16.9,45.4-26.9c14.9-10.1,29.2-20.6,42.9-30c13.7-9.4,26.6-17.5,38.8-23.6
			c12.2-6.1,23.6-10,34.1-12.2c10.5-2.2,20.2-2.6,28.7-2.4c8.5,0.2,15.9,0.8,21.9,0.8c6-0.1,10.7-1,14.1-3.6
			c3.5-2.5,5.8-6.7,7.8-12.3c1.9-5.7,3.6-12.9,6-21c2.5-8.1,5.8-17.2,11.2-26.5c5.3-9.4,12.6-19,22.1-28.7
			c9.5-9.7,21.3-19.5,34.4-29.6c13.1-10.1,27.6-20.5,41.8-31.5c14.1-11,27.9-22.7,39.6-34.8c11.7-12.2,21.3-24.9,27.9-37.5
			c6.6-12.6,10.3-25.2,11.5-36.7c1.2-11.5,0-22.1-2.1-31c-2.1-8.9-5-16.2-6.9-21.9c-1.9-5.7-2.8-9.8-1.7-13.3
			c1.1-3.5,4.3-6.3,9.2-9.8c4.9-3.5,11.5-7.6,18.5-13.6c6.9-6,14.1-13.8,20-23.8c5.8-10,10.2-22.3,12.3-36.5
			c2.1-14.1,1.8-30-0.5-46.7C1296.8,699.7,1292.5,682.2,1287.6,664.9z M1212.6,664.9c-3.4-13.8-7.3-27.5-10.6-40.4
			c-3.3-12.9-6-25.1-7.6-36.3c-1.6-11.2-2-21.5-1.5-30.8c0.5-9.3,1.9-17.7,3.4-25.2c1.5-7.5,3-14.1,3.7-20
			c0.7-5.9,0.5-11.1-1.1-15.8c-1.5-4.7-4.4-9-8.4-13.4c-4-4.4-9.1-8.8-14.7-14c-5.6-5.2-11.7-11.1-17.6-18.4
			c-5.9-7.3-11.6-15.8-16.9-25.8c-5.3-10-10.3-21.5-15.2-33.9c-4.9-12.4-9.8-25.7-15.2-38.9c-5.4-13.2-11.3-26.2-18-38
			s-14.3-22.2-22.5-30.7c-8.2-8.5-17-15-25.7-19.7c-8.7-4.7-17.3-7.5-25.1-9.4c-7.8-1.9-14.7-2.9-20.4-4.1
			c-5.7-1.2-10.2-2.8-13.9-5.4c-3.7-2.7-6.5-6.5-9.4-11.5c-2.9-5-6-11.3-10.2-18.1s-9.5-14.1-16.7-21c-7.1-6.8-16-13.2-26.6-18.3
			c-10.6-5.2-22.9-9.1-36.2-11.9c-13.3-2.8-27.5-4.4-41.7-5.4c-14.2-1-28.4-1.6-41.7-2.4c-13.3-0.8-25.7-2-36.9-4
			c-11.2-2-21.1-4.7-29.8-8.1c-8.7-3.4-16.2-7.3-22.9-11c-6.7-3.7-12.5-7.2-17.9-9.7c-5.4-2.5-10.4-3.9-15.4-3.9
			c-5,0-10,1.4-15.4,3.9c-5.4,2.5-11.2,6-17.9,9.7c-6.7,3.7-14.2,7.6-22.9,11c-8.7,3.3-18.6,6.1-29.8,8.1c-11.2,2-23.6,3.2-36.9,4
			c-13.3,0.8-27.4,1.4-41.7,2.4c-14.2,1-28.4,2.6-41.7,5.4c-13.3,2.8-25.6,6.7-36.2,11.9c-10.6,5.1-19.5,11.5-26.6,18.3
			c-7.1,6.8-12.5,14.2-16.7,21c-4.2,6.8-7.2,13.1-10.2,18.1c-2.9,5-5.8,8.9-9.4,11.5c-3.7,2.7-8.2,4.2-13.9,5.4
			c-5.7,1.2-12.6,2.2-20.4,4.1c-7.8,1.9-16.4,4.7-25.1,9.4c-8.7,4.7-17.5,11.2-25.7,19.7c-8.2,8.5-15.7,19-22.5,30.7
			c-6.7,11.8-12.6,24.8-18,38c-5.4,13.2-10.3,26.5-15.2,38.9c-4.9,12.4-9.9,23.9-15.2,33.9c-5.3,10-11,18.6-16.9,25.8
			c-5.9,7.3-11.9,13.2-17.5,18.4c-5.6,5.2-10.7,9.7-14.8,14c-4,4.4-6.9,8.7-8.4,13.4s-1.8,9.9-1.1,15.8c0.7,5.9,2.2,12.5,3.7,20
			c1.5,7.5,2.9,15.9,3.4,25.2c0.5,9.3,0.1,19.6-1.5,30.8c-1.6,11.2-4.3,23.4-7.6,36.3c-3.3,12.9-7.2,26.5-10.6,40.4
			c-3.4,13.8-6.3,27.9-7.8,41.3s-1.5,26.4,0.1,38.1c1.6,11.7,4.9,22.1,9.2,31c4.3,8.9,9.6,16.2,14.8,22.3
			c5.2,6.1,10.2,10.9,14.1,15.3c3.9,4.3,6.6,8.2,8,12.5c1.4,4.3,1.4,9.1,0.9,14.9c-0.6,5.8-1.8,12.7-2.4,20.6
			c-0.6,8-0.6,17,1.2,26.7c1.7,9.7,5.2,20.1,10.8,30.5c5.6,10.4,13.2,20.8,22.3,30.9c9.1,10,19.7,19.7,30.6,28.9
			c10.9,9.2,22,17.9,32.3,26.4c10.3,8.5,19.6,16.8,27.5,24.9c7.9,8.2,14.3,16.2,19.3,24.1c5.1,7.8,8.9,15.4,12.1,22.4
			c3.2,6.9,5.9,13.2,8.8,18.4c2.9,5.2,6.1,9.2,10.2,12.2c4,2.9,8.9,4.7,14.7,5.9c5.8,1.2,12.6,1.8,20.2,2.7c7.6,0.9,16,2.2,25,4.6
			c9,2.4,18.7,6,28.9,11c10.2,5,20.9,11.3,32.2,18.5c11.3,7.1,23,15,35.1,22.6c12.1,7.5,24.5,14.6,36.9,20.2
			c12.4,5.6,24.6,9.6,36.3,11.7c11.6,2.1,22.5,2.2,32.3,0.8c9.8-1.4,18.4-4.1,25.8-7.2c7.4-3.1,13.5-6.3,18.9-8.7
			c5.3-2.4,9.9-3.8,14.4-3.8c4.5,0,9.1,1.4,14.4,3.8c5.3,2.4,11.5,5.6,18.9,8.7c7.4,3,16,5.8,25.8,7.2c9.8,1.3,20.7,1.2,32.3-0.8
			c11.6-2.1,23.9-6.1,36.3-11.7c12.4-5.6,24.8-12.6,36.9-20.2c12.1-7.5,23.9-15.4,35.1-22.6s22-13.5,32.2-18.5
			c10.2-5,19.9-8.6,28.9-11c9-2.4,17.4-3.7,25-4.6c7.6-0.9,14.4-1.5,20.2-2.7c5.8-1.2,10.7-3,14.7-5.9c4-2.9,7.2-7,10.1-12.2
			c2.9-5.2,5.6-11.4,8.8-18.4c3.2-6.9,7-14.5,12.1-22.4c5.1-7.8,11.5-15.9,19.3-24.1c7.9-8.2,17.2-16.4,27.5-24.9
			c10.3-8.5,21.4-17.2,32.3-26.4c10.9-9.2,21.5-18.8,30.6-28.9c9.1-10,16.7-20.5,22.3-30.9c5.6-10.4,9-20.8,10.8-30.5
			c1.8-9.7,1.8-18.8,1.2-26.7c-0.6-8-1.8-14.8-2.4-20.6c-0.6-5.8-0.5-10.6,0.9-14.9c1.4-4.3,4.2-8.2,8-12.5
			c3.9-4.4,8.9-9.2,14.1-15.3c5.2-6.1,10.5-13.4,14.8-22.3c4.3-8.9,7.6-19.3,9.2-31c1.6-11.7,1.6-24.6,0.1-38.1
			S1216,678.8,1212.6,664.9z M1250.1,664.9c-4.2-15.5-8.9-30.8-12.9-45.2s-7.2-27.9-9-40.3c-1.8-12.3-2.1-23.5-1.3-33.5
			c0.9-10,2.8-18.9,5-26.6c2.1-7.8,4.4-14.5,5.6-20.3c1.2-5.8,1.4-10.8-0.1-15.2c-1.4-4.4-4.5-8.3-8.9-12.3
			c-4.4-4-10.2-8.1-16.4-13.1c-6.3-5-13.1-11-19.7-18.6c-6.6-7.6-12.9-16.8-18.7-27.9c-5.8-11-11.1-23.9-16.4-37.9
			c-5.2-14-10.4-29.1-16.1-44.2c-5.7-15-12.1-29.9-19.4-43.2c-7.3-13.3-15.7-25.1-24.8-34.4c-9.1-9.4-18.8-16.3-28.5-21
			c-9.7-4.7-19.2-7.1-27.6-8.5c-8.4-1.3-15.8-1.5-21.6-2.1s-10.2-1.5-13.5-4c-3.3-2.4-5.6-6.3-7.9-11.6c-2.4-5.4-4.8-12.3-8.7-19.9
			c-3.9-7.6-9.1-15.9-16.6-23.6c-7.4-7.7-17.1-14.9-28.8-20.6c-11.7-5.7-25.5-10-40.4-12.9c-14.9-2.9-31-4.3-47.1-5.1
			c-16.1-0.8-32.1-1-47-1.7c-14.9-0.7-28.8-1.8-41.1-3.9c-12.3-2.1-23-5.3-32.3-9.2c-9.2-3.9-17-8.5-23.8-13
			c-6.7-4.4-12.4-8.6-17.6-11.6c-5.2-3-9.8-4.7-14.4-4.7s-9.3,1.7-14.5,4.7c-5.2,2.9-10.8,7.1-17.6,11.6c-6.7,4.4-14.5,9.1-23.8,13
			c-9.3,3.9-20,7-32.3,9.2c-12.3,2.1-26.1,3.2-41.1,3.9c-14.9,0.6-30.9,0.9-47,1.7c-16.1,0.8-32.2,2.3-47.1,5.1
			c-15,2.9-28.7,7.2-40.4,12.9c-11.7,5.7-21.3,12.9-28.8,20.6c-7.5,7.7-12.7,16-16.6,23.6c-3.9,7.6-6.3,14.6-8.7,19.9
			c-2.4,5.4-4.6,9.2-7.9,11.6c-3.3,2.4-7.7,3.4-13.5,4s-13.2,0.8-21.6,2.1c-8.4,1.3-17.9,3.8-27.6,8.5c-9.7,4.7-19.5,11.6-28.5,21
			c-9.1,9.4-17.4,21.1-24.8,34.4c-7.3,13.3-13.7,28.2-19.4,43.2c-5.7,15-10.9,30.2-16.1,44.2c-5.2,14-10.6,26.8-16.4,37.9
			c-5.8,11-12.1,20.3-18.7,27.9c-6.6,7.6-13.4,13.6-19.7,18.6c-6.3,5-12,9.1-16.5,13.1c-4.4,4-7.4,7.9-8.9,12.3
			c-1.4,4.4-1.3,9.3,0,15.2c1.2,5.8,3.5,12.5,5.6,20.3c2.1,7.8,4.1,16.6,5,26.6c0.8,10,0.5,21.2-1.3,33.5c-1.8,12.3-5,25.8-9,40.3
			s-8.7,29.7-12.9,45.2s-7.8,31.3-9.7,46.4c-1.9,15.1-2.1,29.5-0.2,42.4c1.8,12.9,5.7,24.3,10.7,33.7c5.1,9.5,11.3,17,17.4,23.1
			c6.1,6,11.9,10.5,16.3,14.4c4.4,3.9,7.4,7.3,8.6,11.2c1.3,3.9,0.8,8.3-0.4,14.1c-1.3,5.8-3.3,12.8-4.7,21.2
			c-1.4,8.4-2,18.2-0.5,28.9c1.5,10.6,5,22.1,11.1,33.6s14.7,23.1,25.1,34.2c10.4,11.1,22.6,21.7,35.1,31.8
			c12.5,10.1,25.3,19.7,37,29c11.7,9.3,22.3,18.3,31,27.3c8.7,8.9,15.5,17.8,20.7,26.4c5.2,8.6,8.8,16.9,11.6,24.5
			c2.8,7.5,5,14.3,7.4,19.7c2.4,5.4,5.2,9.5,9,12.3c3.8,2.7,8.5,4.1,14.4,4.7c5.9,0.6,13,0.6,21,1c8,0.4,17.1,1.2,26.9,3.5
			c9.8,2.3,20.3,6.1,31.5,11.6c11.2,5.5,23,12.8,35.5,21c12.5,8.3,25.5,17.5,39,26.3c13.5,8.8,27.4,17.1,41.1,23.6
			c13.8,6.5,27.4,11.1,40.3,13.3c12.8,2.2,24.8,2.1,35.4,0.2s19.7-5.5,27.3-9.4c7.6-3.9,13.7-8,18.8-11c5.1-3,9.2-4.8,13.3-4.8
			s8.2,1.8,13.3,4.8c5.1,3,11.2,7.1,18.8,11c7.6,3.9,16.7,7.5,27.3,9.4s22.6,2,35.4-0.2c12.8-2.2,26.5-6.8,40.3-13.3
			c13.8-6.5,27.7-14.8,41.1-23.6c13.5-8.8,26.5-18,39-26.3c12.5-8.3,24.3-15.5,35.5-21c11.2-5.5,21.7-9.3,31.5-11.6
			c9.8-2.3,18.8-3.1,26.8-3.5c8-0.4,15.1-0.3,21-1c5.9-0.6,10.7-2,14.4-4.7c3.8-2.7,6.5-6.8,9-12.3c2.4-5.4,4.6-12.2,7.4-19.7
			c2.8-7.5,6.4-15.9,11.6-24.5c5.2-8.6,12-17.5,20.7-26.4c8.7-8.9,19.3-18,31-27.3c11.7-9.3,24.5-18.9,37-29
			c12.5-10.1,24.7-20.8,35.1-31.8c10.4-11.1,19-22.7,25.1-34.2c6.1-11.5,9.7-23,11.1-33.6c1.5-10.6,0.9-20.4-0.5-28.9
			c-1.4-8.4-3.4-15.5-4.7-21.2c-1.3-5.8-1.7-10.2-0.4-14.1c1.3-3.9,4.2-7.2,8.6-11.2c4.4-3.9,10.2-8.4,16.3-14.4
			c6.1-6,12.3-13.6,17.4-23.1c5.1-9.5,8.9-20.8,10.7-33.7c1.8-12.9,1.7-27.3-0.2-42.4C1257.8,696.2,1254.2,680.5,1250.1,664.9z
			 M1275.1,664.9c-4.7-16.7-10-33.1-14.5-48.4c-4.5-15.4-8-29.8-9.9-42.9c-1.9-13.1-2.2-24.9-1.1-35.3c1.1-10.5,3.5-19.6,6-27.6
			c2.6-8,5.3-14.7,6.8-20.5c1.6-5.8,2-10.6,0.6-14.8c-1.4-4.2-4.5-7.8-9.2-11.6c-4.7-3.7-10.8-7.6-17.6-12.5
			c-6.7-4.9-14.1-10.9-21.1-18.7c-7-7.8-13.7-17.5-19.9-29.2c-6.1-11.7-11.7-25.5-17.2-40.5c-5.4-15.1-10.8-31.5-16.8-47.7
			c-6-16.3-12.6-32.3-20.4-46.7c-7.8-14.4-16.6-27-26.3-36.9c-9.7-9.9-20.1-17.1-30.4-21.8c-10.3-4.7-20.4-6.9-29.3-7.9
			c-8.9-0.9-16.6-0.7-22.5-0.8c-6-0.1-10.2-0.7-13.3-3c-3.1-2.2-5-6.1-6.9-11.7c-2-5.6-4.1-13-7.7-21.2c-3.6-8.2-8.9-17.1-16.5-25.4
			c-7.6-8.3-17.8-16-30.2-22.2c-12.4-6.1-27.1-10.7-43.2-13.6c-16.1-2.9-33.4-4.3-50.7-5c-17.3-0.7-34.5-0.7-50.5-1.2
			c-16-0.5-30.8-1.6-43.9-3.8c-13-2.2-24.3-5.6-33.9-9.9c-9.6-4.3-17.6-9.4-24.3-14.3c-6.8-4.9-12.4-9.6-17.4-12.8
			c-5-3.3-9.4-5.2-13.8-5.2c-4.4,0-8.8,1.9-13.8,5.2c-5,3.3-10.6,7.9-17.4,12.8c-6.8,4.9-14.7,10-24.3,14.3
			c-9.6,4.3-20.9,7.6-33.9,9.9c-13,2.2-27.8,3.3-43.8,3.8c-16,0.5-33.2,0.5-50.6,1.2c-17.3,0.7-34.7,2-50.7,5
			c-16.1,2.9-30.8,7.5-43.2,13.6c-12.4,6.1-22.5,13.8-30.2,22.2c-7.7,8.3-12.9,17.3-16.5,25.4c-3.6,8.2-5.8,15.5-7.7,21.2
			c-2,5.6-3.9,9.5-6.9,11.7c-3.1,2.2-7.3,2.8-13.3,3c-6,0.1-13.6-0.1-22.5,0.8c-8.9,0.9-19,3.2-29.3,7.9
			c-10.3,4.7-20.7,11.9-30.4,21.8c-9.7,9.9-18.5,22.5-26.3,36.9c-7.8,14.4-14.4,30.4-20.4,46.7c-6,16.3-11.3,32.6-16.8,47.7
			c-5.4,15.1-11,28.8-17.1,40.5c-6.1,11.7-12.8,21.4-19.9,29.2c-7,7.8-14.3,13.8-21.1,18.7c-6.8,4.9-12.9,8.8-17.6,12.5
			c-4.7,3.8-7.8,7.4-9.2,11.6c-1.4,4.2-0.9,9,0.6,14.8c1.6,5.8,4.3,12.5,6.8,20.5c2.6,8,5,17.1,6.1,27.6c1.1,10.5,0.8,22.2-1.1,35.3
			c-1.9,13.1-5.5,27.5-10,42.9c-4.5,15.4-9.8,31.8-14.5,48.4c-4.7,16.7-8.8,33.6-11,49.8c-2.2,16.2-2.4,31.6-0.4,45.3
			c2,13.7,6.2,25.7,11.8,35.5c5.6,9.9,12.4,17.6,19.1,23.6c6.7,6,13,10.3,17.8,13.9c4.7,3.6,7.8,6.6,9,10.2
			c1.2,3.6,0.4,7.8-1.3,13.6c-1.7,5.7-4.3,12.9-6.2,21.7c-1.9,8.8-2.9,19-1.6,30.3c1.3,11.3,4.9,23.4,11.4,35.7
			c6.5,12.3,15.7,24.6,27,36.4c11.3,11.8,24.5,23.1,38.1,33.8c13.6,10.7,27.5,20.9,40.2,30.7c12.6,9.8,24,19.4,33.2,28.8
			c9.2,9.4,16.4,18.8,21.7,27.9c5.3,9.1,8.7,17.9,11.3,25.8c2.6,7.9,4.4,15,6.5,20.6c2.1,5.6,4.6,9.7,8.2,12.3
			c3.6,2.6,8.2,3.7,14.2,3.9c6,0.3,13.2-0.2,21.6-0.2c8.4,0,17.8,0.6,28.1,2.8c10.3,2.2,21.4,6.1,33.2,12
			c11.8,5.9,24.4,13.7,37.7,22.7c13.3,9,27.2,19.1,41.6,28.7c14.4,9.6,29.2,18.7,44,25.8c14.7,7.1,29.3,12.1,43,14.4
			c13.6,2.3,26.3,2,37.4-0.2c11.1-2.3,20.6-6.4,28.3-10.9c7.8-4.5,13.8-9.2,18.7-12.6c4.9-3.4,8.7-5.4,12.5-5.4
			c3.8,0,7.6,2,12.5,5.4c4.9,3.4,10.9,8.1,18.7,12.6c7.8,4.5,17.2,8.6,28.3,10.9c11.1,2.3,23.8,2.6,37.4,0.2
			c13.7-2.4,28.2-7.3,43-14.4c14.7-7.1,29.6-16.2,44-25.8c14.4-9.6,28.3-19.7,41.6-28.7c13.3-9,25.8-16.8,37.7-22.7
			c11.8-5.9,23-9.8,33.3-12c10.3-2.2,19.7-2.8,28.1-2.8s15.6,0.5,21.6,0.2c6-0.3,10.7-1.4,14.2-3.9c3.6-2.6,6-6.7,8.2-12.3
			c2.1-5.6,3.9-12.6,6.5-20.6c2.6-7.9,6-16.8,11.3-25.8c5.3-9.1,12.4-18.5,21.7-27.9c9.3-9.5,20.6-19,33.3-28.8
			c12.7-9.8,26.6-20,40.2-30.7c13.6-10.7,26.9-22,38.1-33.8c11.3-11.8,20.5-24.1,27-36.4s10.1-24.4,11.4-35.7
			c1.3-11.3,0.3-21.5-1.6-30.3c-1.9-8.8-4.5-16-6.2-21.7c-1.7-5.7-2.5-10-1.3-13.6c1.2-3.6,4.3-6.6,9-10.2
			c4.8-3.6,11.1-7.9,17.8-13.9c6.6-6,13.5-13.7,19.1-23.6c5.6-9.9,9.8-21.8,11.8-35.5c2-13.7,1.8-29.1-0.4-45.3
			C1283.8,698.5,1279.8,681.6,1275.1,664.9z M1300.1,664.9c-5.2-17.8-11.1-35.3-16-51.7c-4.9-16.4-8.8-31.7-10.9-45.5
			c-2.1-13.8-2.3-26.2-1-37.1c1.3-10.9,4.1-20.4,7.1-28.5c3-8.1,6.2-14.9,8.1-20.7c1.9-5.7,2.6-10.3,1.3-14.3
			c-1.3-4-4.6-7.3-9.5-10.8c-4.9-3.5-11.5-7.1-18.7-11.9c-7.2-4.8-15-10.8-22.5-18.9c-7.5-8.1-14.6-18.2-21-30.6
			c-6.5-12.4-12.3-27.1-17.9-43.2c-5.7-16.1-11.2-33.8-17.4-51.2s-13.2-34.8-21.4-50.2c-8.2-15.4-17.5-28.9-27.8-39.4
			c-10.3-10.5-21.4-18-32.3-22.7c-10.9-4.7-21.6-6.7-31-7.2c-9.4-0.6-17.3,0.2-23.4,0.5c-6.1,0.3-10.3,0.1-13.1-2
			c-2.8-2-4.3-6-5.9-11.8c-1.6-5.9-3.3-13.7-6.7-22.4c-3.4-8.7-8.6-18.3-16.5-27.2c-7.9-9-18.4-17.2-31.6-23.7
			c-13.2-6.5-28.9-11.3-46-14.3c-17.2-3-35.8-4.3-54.3-4.8c-18.5-0.5-37-0.3-54.1-0.7c-17.1-0.4-32.8-1.4-46.6-3.7
			c-13.8-2.3-25.6-6-35.6-10.6c-10-4.6-18.1-10.2-24.9-15.6c-6.8-5.4-12.3-10.5-17.1-14.1c-4.8-3.6-9-5.7-13.2-5.7
			c-4.2,0-8.4,2.1-13.2,5.7c-4.8,3.6-10.3,8.7-17.1,14.1c-6.8,5.4-14.9,10.9-24.9,15.6c-10,4.6-21.8,8.3-35.6,10.6
			c-13.8,2.3-29.5,3.3-46.6,3.7c-17.1,0.4-35.5,0.2-54.1,0.7c-18.6,0.5-37.2,1.8-54.3,4.8c-17.2,3-32.9,7.8-46,14.3
			c-13.1,6.5-23.7,14.8-31.6,23.7c-7.9,8.9-13,18.5-16.5,27.2c-3.4,8.7-5.2,16.5-6.8,22.4c-1.6,5.9-3.1,9.8-5.9,11.8
			c-2.8,2.1-7,2.3-13.1,2c-6.1-0.3-14-1.1-23.4-0.5c-9.3,0.6-20.1,2.5-31,7.2c-10.9,4.7-22.1,12.2-32.3,22.7
			c-10.3,10.5-19.6,24-27.8,39.4c-8.2,15.4-15.1,32.7-21.4,50.2c-6.2,17.5-11.8,35.1-17.4,51.2c-5.7,16.1-11.5,30.8-17.9,43.2
			c-6.4,12.4-13.6,22.5-21,30.6c-7.5,8.1-15.3,14.1-22.5,18.9c-7.2,4.8-13.8,8.5-18.7,11.9c-4.9,3.5-8.2,6.8-9.5,10.8
			c-1.3,4-0.6,8.6,1.3,14.3c1.9,5.7,5.1,12.5,8.1,20.7c3,8.1,5.8,17.6,7.1,28.5c1.3,10.9,1.1,23.3-1,37.1
			c-2.1,13.8-6,29.1-10.9,45.5c-4.9,16.4-10.8,33.9-16,51.7s-9.8,35.9-12.2,53.2c-2.5,17.3-2.8,33.7-0.6,48.2
			c2.1,14.5,6.7,27.1,12.8,37.4c6.1,10.2,13.6,18.1,20.8,24.1c7.2,6,14.1,10,19.2,13.3c5.1,3.3,8.3,6,9.4,9.3c1.1,3.3,0,7.4-2.1,13
			c-2.2,5.7-5.4,13-7.7,22.1c-2.3,9.1-3.8,19.9-2.7,31.7c1.1,11.9,4.8,24.8,11.6,37.8c6.8,13,16.7,26.1,28.8,38.6
			c12.1,12.5,26.4,24.5,41.1,35.8c14.7,11.3,29.7,22,43.3,32.4c13.6,10.4,25.7,20.4,35.5,30.4c9.8,10,17.2,19.9,22.6,29.5
			c5.4,9.6,8.6,18.9,11,27.2s3.8,15.7,5.6,21.5c1.8,5.8,4,9.9,7.4,12.4c3.4,2.5,8,3.3,14,3.2c6-0.1,13.5-1,22.1-1.3
			c8.7-0.3,18.5-0.1,29.3,2.1c10.8,2.1,22.5,6.2,35,12.4c12.5,6.2,25.8,14.7,39.9,24.4c14.1,9.7,28.9,20.7,44.2,31.2
			c15.3,10.5,31.1,20.4,46.8,28.1c15.7,7.7,31.2,13,45.6,15.5c14.5,2.5,27.9,2,39.5-0.6c11.6-2.6,21.4-7.3,29.3-12.4
			c7.9-5,13.9-10.3,18.6-14.2c4.7-3.8,8.3-6.1,11.7-6.1s7,2.3,11.7,6.1c4.7,3.8,10.7,9.1,18.6,14.2c7.9,5,17.7,9.8,29.3,12.4
			c11.6,2.6,25,3.1,39.5,0.6c14.5-2.5,30-7.8,45.6-15.5c15.7-7.7,31.5-17.6,46.8-28.1c15.3-10.5,30.1-21.5,44.2-31.2
			c14.1-9.7,27.4-18.2,39.9-24.4c12.5-6.2,24.2-10.3,35-12.4c10.8-2.1,20.6-2.4,29.3-2.1c8.7,0.3,16.1,1.3,22.1,1.3
			c6,0.1,10.6-0.7,14-3.2s5.6-6.6,7.4-12.4c1.8-5.8,3.2-13.1,5.6-21.5c2.4-8.3,5.7-17.6,11-27.2c5.4-9.6,12.8-19.5,22.6-29.5
			c9.8-10,21.9-20,35.5-30.4c13.6-10.4,28.6-21.1,43.3-32.4c14.7-11.3,29-23.3,41.1-35.8c12.1-12.5,22-25.6,28.8-38.6
			c6.8-13,10.5-25.9,11.6-37.8c1.1-11.9-0.3-22.7-2.7-31.7c-2.4-9.1-5.6-16.4-7.7-22.1c-2.2-5.7-3.2-9.7-2.2-13
			c1.1-3.3,4.3-6,9.4-9.3c5.1-3.3,12-7.4,19.2-13.3c7.2-6,14.8-13.8,20.8-24.1c6.1-10.2,10.7-22.8,12.8-37.4
			c2.1-14.5,1.8-30.9-0.6-48.2C1309.8,700.8,1305.3,682.7,1300.1,664.9z"/>
	</g>
	<g>
		<path fill="#1D1D1B" d="M576.8,585.9v-53.1c70.8,0,82.6-24.1,95.4-72.3h51.2v403.7h-79.8V585.9H576.8z"/>
	</g>
</g>
</svg>
